<svg width="25" height="25" viewBox="0 0 25 25" fill="none" xmlns="http://www.w3.org/2000/svg">
<path fill-rule="evenodd" clip-rule="evenodd" d="M6.25 0C4.5924 0 3.00269 0.65848 1.83058 1.83058C0.65848 3.00269 0 4.5924 0 6.25L0 18.75C0 20.4076 0.65848 21.9973 1.83058 23.1694C3.00269 24.3415 4.5924 25 6.25 25H18.75C20.4076 25 21.9973 24.3415 23.1694 23.1694C24.3415 21.9973 25 20.4076 25 18.75V6.25C25 4.5924 24.3415 3.00269 23.1694 1.83058C21.9973 0.65848 20.4076 0 18.75 0L6.25 0ZM18.7554 9.31964C18.9777 9.04188 19.0806 8.68715 19.0414 8.33352C19.0023 7.97988 18.8242 7.65628 18.5464 7.43393C18.2687 7.21157 17.9139 7.10867 17.5603 7.14785C17.2067 7.18703 16.8831 7.36509 16.6607 7.64286L10.3321 15.5607L7.79821 13.6607C7.65751 13.5552 7.4974 13.4784 7.32703 13.4348C7.15665 13.3911 6.97935 13.3814 6.80524 13.4063C6.63113 13.4312 6.46362 13.4901 6.31228 13.5797C6.16095 13.6693 6.02874 13.7879 5.92321 13.9286C5.81769 14.0693 5.74091 14.2294 5.69726 14.3998C5.65361 14.5701 5.64394 14.7474 5.66882 14.9215C5.69369 15.0957 5.75261 15.2632 5.84222 15.4145C5.93183 15.5658 6.05037 15.698 6.19107 15.8036L9.7625 18.4821C10.0408 18.6912 10.3896 18.7837 10.7349 18.74C11.0802 18.6964 11.395 18.52 11.6125 18.2482L18.7554 9.31964Z" fill="black"/>
</svg>
