<svg width="1440" height="183" viewBox="0 0 1440 183" fill="none" xmlns="http://www.w3.org/2000/svg">
<rect y="159" width="1440" height="24" fill="#060606"/>
<path d="M406.161 141.95C406.161 143.192 406.437 144.288 406.989 145.239C407.557 146.19 408.293 146.933 409.197 147.47C410.102 148.007 411.083 148.275 412.141 148.275C412.908 148.275 413.606 148.175 414.234 147.976C414.878 147.777 415.461 147.501 415.982 147.148C416.504 146.78 416.948 146.358 417.316 145.883V148.459C416.642 149.057 415.906 149.502 415.108 149.793C414.311 150.084 413.322 150.23 412.141 150.23C411.022 150.23 409.972 150.031 408.99 149.632C408.024 149.218 407.173 148.643 406.437 147.907C405.701 147.156 405.126 146.274 404.712 145.262C404.298 144.25 404.091 143.146 404.091 141.95C404.091 140.754 404.298 139.65 404.712 138.638C405.126 137.626 405.701 136.752 406.437 136.016C407.173 135.265 408.024 134.69 408.99 134.291C409.972 133.877 411.022 133.67 412.141 133.67C413.322 133.67 414.311 133.816 415.108 134.107C415.906 134.398 416.642 134.843 417.316 135.441V138.017C416.948 137.542 416.504 137.128 415.982 136.775C415.461 136.407 414.878 136.123 414.234 135.924C413.606 135.725 412.908 135.625 412.141 135.625C411.083 135.625 410.102 135.893 409.197 136.43C408.293 136.967 407.557 137.71 406.989 138.661C406.437 139.596 406.161 140.693 406.161 141.95ZM419.722 144.71C419.722 143.637 419.959 142.686 420.435 141.858C420.925 141.03 421.585 140.378 422.413 139.903C423.241 139.428 424.168 139.19 425.196 139.19C426.238 139.19 427.166 139.428 427.979 139.903C428.807 140.378 429.458 141.03 429.934 141.858C430.424 142.686 430.67 143.637 430.67 144.71C430.67 145.768 430.424 146.719 429.934 147.562C429.458 148.39 428.807 149.042 427.979 149.517C427.166 149.992 426.238 150.23 425.196 150.23C424.168 150.23 423.241 149.992 422.413 149.517C421.585 149.042 420.925 148.39 420.435 147.562C419.959 146.719 419.722 145.768 419.722 144.71ZM421.585 144.71C421.585 145.446 421.738 146.098 422.045 146.665C422.367 147.232 422.796 147.685 423.333 148.022C423.885 148.344 424.506 148.505 425.196 148.505C425.886 148.505 426.499 148.344 427.036 148.022C427.588 147.685 428.017 147.232 428.324 146.665C428.646 146.098 428.807 145.446 428.807 144.71C428.807 143.974 428.646 143.322 428.324 142.755C428.017 142.172 427.588 141.72 427.036 141.398C426.499 141.076 425.886 140.915 425.196 140.915C424.506 140.915 423.885 141.076 423.333 141.398C422.796 141.72 422.367 142.172 422.045 142.755C421.738 143.322 421.585 143.974 421.585 144.71ZM434.922 155.06H433.082V139.42H434.922V155.06ZM443.777 144.71C443.777 145.845 443.54 146.826 443.064 147.654C442.589 148.482 441.953 149.118 441.155 149.563C440.373 150.008 439.499 150.23 438.533 150.23C437.659 150.23 436.885 150.008 436.21 149.563C435.551 149.118 435.03 148.482 434.646 147.654C434.278 146.826 434.094 145.845 434.094 144.71C434.094 143.56 434.278 142.579 434.646 141.766C435.03 140.938 435.551 140.302 436.21 139.857C436.885 139.412 437.659 139.19 438.533 139.19C439.499 139.19 440.373 139.412 441.155 139.857C441.953 140.302 442.589 140.938 443.064 141.766C443.54 142.579 443.777 143.56 443.777 144.71ZM441.914 144.71C441.914 143.897 441.746 143.207 441.408 142.64C441.086 142.073 440.649 141.643 440.097 141.352C439.561 141.061 438.963 140.915 438.303 140.915C437.767 140.915 437.238 141.061 436.716 141.352C436.195 141.643 435.766 142.073 435.428 142.64C435.091 143.207 434.922 143.897 434.922 144.71C434.922 145.523 435.091 146.213 435.428 146.78C435.766 147.347 436.195 147.777 436.716 148.068C437.238 148.359 437.767 148.505 438.303 148.505C438.963 148.505 439.561 148.359 440.097 148.068C440.649 147.777 441.086 147.347 441.408 146.78C441.746 146.213 441.914 145.523 441.914 144.71ZM454.372 139.42L447.472 155.06H445.402L448.3 148.505L444.252 139.42H446.437L449.795 147.7L449.036 147.608L452.302 139.42H454.372ZM457.947 139.42V150H456.107V139.42H457.947ZM461.144 141.444C460.899 141.26 460.677 141.13 460.477 141.053C460.278 140.961 460.025 140.915 459.718 140.915C459.258 140.915 458.898 141.03 458.637 141.26C458.377 141.49 458.193 141.804 458.085 142.203C457.993 142.602 457.947 143.054 457.947 143.56H457.119C457.119 142.717 457.265 141.973 457.556 141.329C457.863 140.67 458.254 140.148 458.729 139.765C459.205 139.382 459.688 139.19 460.178 139.19C460.562 139.19 460.914 139.244 461.236 139.351C461.574 139.443 461.88 139.635 462.156 139.926L461.144 141.444ZM463.991 135.05C463.991 134.697 464.114 134.398 464.359 134.153C464.62 133.908 464.919 133.785 465.256 133.785C465.609 133.785 465.908 133.908 466.153 134.153C466.398 134.398 466.521 134.697 466.521 135.05C466.521 135.387 466.398 135.686 466.153 135.947C465.908 136.192 465.609 136.315 465.256 136.315C464.919 136.315 464.62 136.192 464.359 135.947C464.114 135.686 463.991 135.387 463.991 135.05ZM464.336 139.42H466.176V150H464.336V139.42ZM469.253 150.69H471.116C471.116 151.196 471.254 151.664 471.53 152.093C471.806 152.538 472.197 152.89 472.703 153.151C473.209 153.427 473.807 153.565 474.497 153.565C475.033 153.565 475.562 153.435 476.084 153.174C476.605 152.913 477.034 152.499 477.372 151.932C477.724 151.38 477.901 150.659 477.901 149.77V139.42H479.741V149.77C479.741 150.981 479.488 151.993 478.982 152.806C478.476 153.634 477.824 154.255 477.027 154.669C476.229 155.083 475.386 155.29 474.497 155.29C473.469 155.29 472.557 155.098 471.76 154.715C470.978 154.332 470.364 153.787 469.92 153.082C469.475 152.392 469.253 151.595 469.253 150.69ZM469.046 144.71C469.046 143.56 469.283 142.579 469.759 141.766C470.234 140.938 470.87 140.302 471.668 139.857C472.465 139.412 473.339 139.19 474.29 139.19C475.179 139.19 475.953 139.412 476.613 139.857C477.272 140.302 477.786 140.938 478.154 141.766C478.537 142.579 478.729 143.56 478.729 144.71C478.729 145.845 478.537 146.826 478.154 147.654C477.786 148.482 477.272 149.118 476.613 149.563C475.953 150.008 475.179 150.23 474.29 150.23C473.339 150.23 472.465 150.008 471.668 149.563C470.87 149.118 470.234 148.482 469.759 147.654C469.283 146.826 469.046 145.845 469.046 144.71ZM470.909 144.71C470.909 145.523 471.07 146.213 471.392 146.78C471.729 147.347 472.174 147.777 472.726 148.068C473.278 148.359 473.876 148.505 474.52 148.505C475.056 148.505 475.585 148.359 476.107 148.068C476.628 147.777 477.057 147.347 477.395 146.78C477.732 146.213 477.901 145.523 477.901 144.71C477.901 144.097 477.801 143.56 477.602 143.1C477.402 142.625 477.134 142.226 476.797 141.904C476.475 141.582 476.114 141.337 475.716 141.168C475.317 140.999 474.918 140.915 474.52 140.915C473.876 140.915 473.278 141.061 472.726 141.352C472.174 141.643 471.729 142.073 471.392 142.64C471.07 143.207 470.909 143.897 470.909 144.71ZM484.923 132.06V150H483.083V132.06H484.923ZM489.868 143.56C489.868 142.686 489.676 142.027 489.293 141.582C488.925 141.137 488.365 140.915 487.614 140.915C487.077 140.915 486.602 141.03 486.188 141.26C485.789 141.49 485.475 141.804 485.245 142.203C485.03 142.602 484.923 143.054 484.923 143.56H484.325C484.325 142.717 484.486 141.973 484.808 141.329C485.13 140.67 485.567 140.148 486.119 139.765C486.686 139.382 487.338 139.19 488.074 139.19C488.81 139.19 489.446 139.343 489.983 139.65C490.535 139.957 490.957 140.417 491.248 141.03C491.555 141.643 491.708 142.41 491.708 143.33V150H489.868V143.56ZM493.557 139.42H498.847V141.145H493.557V139.42ZM495.282 135.74H497.122V150H495.282V135.74ZM511.36 141.95C511.36 142.701 511.513 143.361 511.82 143.928C512.142 144.495 512.571 144.94 513.108 145.262C513.66 145.584 514.273 145.745 514.948 145.745C515.622 145.745 516.22 145.615 516.742 145.354C517.278 145.093 517.715 144.748 518.053 144.319V145.86C517.654 146.213 517.209 146.481 516.719 146.665C516.243 146.834 515.653 146.918 514.948 146.918C514.058 146.918 513.246 146.703 512.51 146.274C511.789 145.845 511.206 145.254 510.762 144.503C510.332 143.752 510.118 142.901 510.118 141.95C510.118 140.984 510.332 140.133 510.762 139.397C511.206 138.646 511.789 138.055 512.51 137.626C513.246 137.197 514.058 136.982 514.948 136.982C515.653 136.982 516.243 137.074 516.719 137.258C517.209 137.427 517.654 137.687 518.053 138.04V139.581C517.715 139.152 517.278 138.807 516.742 138.546C516.22 138.285 515.622 138.155 514.948 138.155C514.273 138.155 513.66 138.316 513.108 138.638C512.571 138.96 512.142 139.405 511.82 139.972C511.513 140.539 511.36 141.199 511.36 141.95ZM508.048 141.95C508.048 142.977 508.224 143.928 508.577 144.802C508.929 145.661 509.42 146.412 510.049 147.056C510.693 147.7 511.436 148.198 512.28 148.551C513.138 148.904 514.066 149.08 515.063 149.08C516.059 149.08 516.979 148.904 517.823 148.551C518.681 148.198 519.425 147.7 520.054 147.056C520.698 146.412 521.196 145.661 521.549 144.802C521.901 143.928 522.078 142.977 522.078 141.95C522.078 140.923 521.901 139.98 521.549 139.121C521.196 138.247 520.698 137.488 520.054 136.844C519.425 136.2 518.681 135.702 517.823 135.349C516.979 134.996 516.059 134.82 515.063 134.82C514.066 134.82 513.138 134.996 512.28 135.349C511.436 135.702 510.693 136.2 510.049 136.844C509.42 137.488 508.929 138.247 508.577 139.121C508.224 139.98 508.048 140.923 508.048 141.95ZM506.783 141.95C506.783 140.754 506.99 139.65 507.404 138.638C507.833 137.626 508.416 136.752 509.152 136.016C509.903 135.265 510.785 134.69 511.797 134.291C512.809 133.877 513.897 133.67 515.063 133.67C516.243 133.67 517.332 133.877 518.329 134.291C519.341 134.69 520.215 135.265 520.951 136.016C521.702 136.752 522.285 137.626 522.699 138.638C523.128 139.65 523.343 140.754 523.343 141.95C523.343 143.146 523.128 144.25 522.699 145.262C522.285 146.274 521.702 147.156 520.951 147.907C520.215 148.643 519.341 149.218 518.329 149.632C517.332 150.031 516.243 150.23 515.063 150.23C513.897 150.23 512.809 150.031 511.797 149.632C510.785 149.218 509.903 148.643 509.152 147.907C508.416 147.156 507.833 146.274 507.404 145.262C506.99 144.25 506.783 143.146 506.783 141.95ZM531.614 150L539.227 141.881C539.579 141.498 539.878 141.122 540.124 140.754C540.384 140.371 540.576 139.987 540.699 139.604C540.837 139.205 540.906 138.791 540.906 138.362C540.906 138.009 540.837 137.664 540.699 137.327C540.561 136.99 540.354 136.683 540.078 136.407C539.817 136.131 539.495 135.909 539.112 135.74C538.728 135.571 538.291 135.487 537.801 135.487C537.111 135.487 536.513 135.648 536.007 135.97C535.516 136.277 535.14 136.729 534.88 137.327C534.619 137.91 534.489 138.607 534.489 139.42H532.534C532.534 138.27 532.741 137.266 533.155 136.407C533.569 135.533 534.167 134.858 534.949 134.383C535.746 133.892 536.697 133.647 537.801 133.647C538.69 133.647 539.457 133.8 540.101 134.107C540.745 134.398 541.274 134.782 541.688 135.257C542.102 135.717 542.408 136.215 542.608 136.752C542.807 137.289 542.907 137.802 542.907 138.293C542.907 139.121 542.707 139.941 542.309 140.754C541.91 141.567 541.396 142.295 540.768 142.939L535.639 148.16H542.976V150H531.614ZM547.124 141.95C547.124 142.885 547.216 143.752 547.4 144.549C547.584 145.331 547.852 146.013 548.205 146.596C548.557 147.163 548.979 147.608 549.47 147.93C549.976 148.237 550.535 148.39 551.149 148.39C551.777 148.39 552.337 148.237 552.828 147.93C553.318 147.608 553.74 147.163 554.093 146.596C554.445 146.013 554.714 145.331 554.898 144.549C555.082 143.752 555.174 142.885 555.174 141.95C555.174 141.015 555.082 140.156 554.898 139.374C554.714 138.577 554.445 137.894 554.093 137.327C553.74 136.744 553.318 136.3 552.828 135.993C552.337 135.671 551.777 135.51 551.149 135.51C550.535 135.51 549.976 135.671 549.47 135.993C548.979 136.3 548.557 136.744 548.205 137.327C547.852 137.894 547.584 138.577 547.4 139.374C547.216 140.156 547.124 141.015 547.124 141.95ZM545.169 141.95C545.169 140.34 545.422 138.914 545.928 137.672C546.434 136.43 547.131 135.456 548.021 134.751C548.925 134.03 549.968 133.67 551.149 133.67C552.329 133.67 553.364 134.03 554.254 134.751C555.158 135.456 555.864 136.43 556.37 137.672C556.876 138.914 557.129 140.34 557.129 141.95C557.129 143.56 556.876 144.986 556.37 146.228C555.864 147.47 555.158 148.451 554.254 149.172C553.364 149.877 552.329 150.23 551.149 150.23C549.968 150.23 548.925 149.877 548.021 149.172C547.131 148.451 546.434 147.47 545.928 146.228C545.422 144.986 545.169 143.56 545.169 141.95ZM558.5 150L566.113 141.881C566.465 141.498 566.764 141.122 567.01 140.754C567.27 140.371 567.462 139.987 567.585 139.604C567.723 139.205 567.792 138.791 567.792 138.362C567.792 138.009 567.723 137.664 567.585 137.327C567.447 136.99 567.24 136.683 566.964 136.407C566.703 136.131 566.381 135.909 565.998 135.74C565.614 135.571 565.177 135.487 564.687 135.487C563.997 135.487 563.399 135.648 562.893 135.97C562.402 136.277 562.026 136.729 561.766 137.327C561.505 137.91 561.375 138.607 561.375 139.42H559.42C559.42 138.27 559.627 137.266 560.041 136.407C560.455 135.533 561.053 134.858 561.835 134.383C562.632 133.892 563.583 133.647 564.687 133.647C565.576 133.647 566.343 133.8 566.987 134.107C567.631 134.398 568.16 134.782 568.574 135.257C568.988 135.717 569.294 136.215 569.494 136.752C569.693 137.289 569.793 137.802 569.793 138.293C569.793 139.121 569.593 139.941 569.195 140.754C568.796 141.567 568.282 142.295 567.654 142.939L562.525 148.16H569.862V150H558.5ZM576.953 142.065V140.8C577.475 140.8 577.935 140.731 578.333 140.593C578.732 140.44 579.069 140.24 579.345 139.995C579.621 139.734 579.828 139.435 579.966 139.098C580.12 138.761 580.196 138.4 580.196 138.017C580.196 137.511 580.104 137.066 579.92 136.683C579.736 136.284 579.46 135.978 579.092 135.763C578.74 135.548 578.295 135.441 577.758 135.441C577.007 135.441 576.371 135.679 575.849 136.154C575.328 136.614 575.067 137.197 575.067 137.902H573.204C573.204 137.059 573.396 136.323 573.779 135.694C574.178 135.065 574.715 134.575 575.389 134.222C576.079 133.854 576.861 133.67 577.735 133.67C578.655 133.67 579.445 133.869 580.104 134.268C580.779 134.667 581.293 135.188 581.645 135.832C582.013 136.476 582.197 137.181 582.197 137.948C582.197 138.699 581.975 139.389 581.53 140.018C581.086 140.647 580.472 141.145 579.69 141.513C578.908 141.881 577.996 142.065 576.953 142.065ZM577.643 150.23C576.861 150.23 576.156 150.115 575.527 149.885C574.899 149.655 574.362 149.341 573.917 148.942C573.473 148.528 573.128 148.053 572.882 147.516C572.637 146.964 572.514 146.374 572.514 145.745H574.492C574.492 146.251 574.623 146.703 574.883 147.102C575.159 147.501 575.535 147.815 576.01 148.045C576.486 148.275 577.03 148.39 577.643 148.39C578.257 148.39 578.786 148.275 579.23 148.045C579.69 147.8 580.043 147.462 580.288 147.033C580.534 146.604 580.656 146.098 580.656 145.515C580.656 145.024 580.557 144.595 580.357 144.227C580.173 143.844 579.913 143.529 579.575 143.284C579.238 143.023 578.847 142.832 578.402 142.709C577.958 142.586 577.475 142.525 576.953 142.525V141.26C577.735 141.26 578.464 141.344 579.138 141.513C579.828 141.682 580.434 141.95 580.955 142.318C581.492 142.671 581.906 143.131 582.197 143.698C582.504 144.265 582.657 144.948 582.657 145.745C582.657 146.65 582.435 147.439 581.99 148.114C581.561 148.789 580.971 149.31 580.219 149.678C579.468 150.046 578.609 150.23 577.643 150.23ZM600.402 142.18V140.34H611.442V142.18H600.402ZM610.131 133.9H612.086V150H610.131V133.9ZM599.321 133.9H601.276V150H599.321V133.9ZM623.582 132.06H625.422V150H623.582V132.06ZM614.727 144.71C614.727 143.56 614.965 142.579 615.44 141.766C615.916 140.938 616.552 140.302 617.349 139.857C618.147 139.412 619.021 139.19 619.971 139.19C620.861 139.19 621.635 139.412 622.294 139.857C622.954 140.302 623.467 140.938 623.835 141.766C624.219 142.579 624.41 143.56 624.41 144.71C624.41 145.845 624.219 146.826 623.835 147.654C623.467 148.482 622.954 149.118 622.294 149.563C621.635 150.008 620.861 150.23 619.971 150.23C619.021 150.23 618.147 150.008 617.349 149.563C616.552 149.118 615.916 148.482 615.44 147.654C614.965 146.826 614.727 145.845 614.727 144.71ZM616.59 144.71C616.59 145.523 616.751 146.213 617.073 146.78C617.411 147.347 617.855 147.777 618.407 148.068C618.959 148.359 619.557 148.505 620.201 148.505C620.738 148.505 621.267 148.359 621.788 148.068C622.31 147.777 622.739 147.347 623.076 146.78C623.414 146.213 623.582 145.523 623.582 144.71C623.582 143.897 623.414 143.207 623.076 142.64C622.739 142.073 622.31 141.643 621.788 141.352C621.267 141.061 620.738 140.915 620.201 140.915C619.557 140.915 618.959 141.061 618.407 141.352C617.855 141.643 617.411 142.073 617.073 142.64C616.751 143.207 616.59 143.897 616.59 144.71ZM630.605 132.06V150H628.765V132.06H630.605ZM635.55 143.56C635.55 142.686 635.358 142.027 634.975 141.582C634.607 141.137 634.047 140.915 633.296 140.915C632.759 140.915 632.284 141.03 631.87 141.26C631.471 141.49 631.157 141.804 630.927 142.203C630.712 142.602 630.605 143.054 630.605 143.56H630.007C630.007 142.717 630.168 141.973 630.49 141.329C630.812 140.67 631.249 140.148 631.801 139.765C632.368 139.382 633.02 139.19 633.756 139.19C634.492 139.19 635.128 139.343 635.665 139.65C636.217 139.957 636.638 140.417 636.93 141.03C637.236 141.643 637.39 142.41 637.39 143.33V150H635.55V143.56ZM640.849 135.05C640.849 134.697 640.971 134.398 641.217 134.153C641.477 133.908 641.776 133.785 642.114 133.785C642.466 133.785 642.765 133.908 643.011 134.153C643.256 134.398 643.379 134.697 643.379 135.05C643.379 135.387 643.256 135.686 643.011 135.947C642.765 136.192 642.466 136.315 642.114 136.315C641.776 136.315 641.477 136.192 641.217 135.947C640.971 135.686 640.849 135.387 640.849 135.05ZM641.194 139.42H643.034V150H641.194V139.42ZM648.663 139.42V150H646.823V139.42H648.663ZM651.86 141.444C651.615 141.26 651.392 141.13 651.193 141.053C650.994 140.961 650.741 140.915 650.434 140.915C649.974 140.915 649.614 141.03 649.353 141.26C649.092 141.49 648.908 141.804 648.801 142.203C648.709 142.602 648.663 143.054 648.663 143.56H647.835C647.835 142.717 647.981 141.973 648.272 141.329C648.579 140.67 648.97 140.148 649.445 139.765C649.92 139.382 650.403 139.19 650.894 139.19C651.277 139.19 651.63 139.244 651.952 139.351C652.289 139.443 652.596 139.635 652.872 139.926L651.86 141.444ZM654.707 135.05C654.707 134.697 654.83 134.398 655.075 134.153C655.336 133.908 655.635 133.785 655.972 133.785C656.325 133.785 656.624 133.908 656.869 134.153C657.114 134.398 657.237 134.697 657.237 135.05C657.237 135.387 657.114 135.686 656.869 135.947C656.624 136.192 656.325 136.315 655.972 136.315C655.635 136.315 655.336 136.192 655.075 135.947C654.83 135.686 654.707 135.387 654.707 135.05ZM655.052 139.42H656.892V150H655.052V139.42ZM669.923 139.121L668.727 150H666.772L668.727 133.095L675.167 144.756L681.607 133.095L683.562 150H681.607L680.411 139.121L675.167 148.505L669.923 139.121ZM685.277 144.71C685.277 143.637 685.515 142.686 685.99 141.858C686.481 141.03 687.14 140.378 687.968 139.903C688.796 139.428 689.724 139.19 690.751 139.19C691.794 139.19 692.722 139.428 693.534 139.903C694.362 140.378 695.014 141.03 695.489 141.858C695.98 142.686 696.225 143.637 696.225 144.71C696.225 145.768 695.98 146.719 695.489 147.562C695.014 148.39 694.362 149.042 693.534 149.517C692.722 149.992 691.794 150.23 690.751 150.23C689.724 150.23 688.796 149.992 687.968 149.517C687.14 149.042 686.481 148.39 685.99 147.562C685.515 146.719 685.277 145.768 685.277 144.71ZM687.14 144.71C687.14 145.446 687.294 146.098 687.6 146.665C687.922 147.232 688.352 147.685 688.888 148.022C689.44 148.344 690.061 148.505 690.751 148.505C691.441 148.505 692.055 148.344 692.591 148.022C693.143 147.685 693.573 147.232 693.879 146.665C694.201 146.098 694.362 145.446 694.362 144.71C694.362 143.974 694.201 143.322 693.879 142.755C693.573 142.172 693.143 141.72 692.591 141.398C692.055 141.076 691.441 140.915 690.751 140.915C690.061 140.915 689.44 141.076 688.888 141.398C688.352 141.72 687.922 142.172 687.6 142.755C687.294 143.322 687.14 143.974 687.14 144.71ZM700.593 132.06V150H698.753V132.06H700.593ZM705.538 143.56C705.538 142.686 705.346 142.027 704.963 141.582C704.595 141.137 704.035 140.915 703.284 140.915C702.747 140.915 702.272 141.03 701.858 141.26C701.459 141.49 701.145 141.804 700.915 142.203C700.7 142.602 700.593 143.054 700.593 143.56H699.995C699.995 142.717 700.156 141.973 700.478 141.329C700.8 140.67 701.237 140.148 701.789 139.765C702.356 139.382 703.008 139.19 703.744 139.19C704.48 139.19 705.116 139.343 705.653 139.65C706.205 139.957 706.626 140.417 706.918 141.03C707.224 141.643 707.378 142.41 707.378 143.33V150H705.538V143.56ZM711.665 146.734C711.665 147.133 711.757 147.478 711.941 147.769C712.14 148.06 712.408 148.283 712.746 148.436C713.098 148.574 713.497 148.643 713.942 148.643C714.509 148.643 715.015 148.528 715.46 148.298C715.92 148.068 716.28 147.746 716.541 147.332C716.817 146.903 716.955 146.412 716.955 145.86L717.323 147.24C717.323 147.915 717.116 148.474 716.702 148.919C716.303 149.364 715.805 149.693 715.207 149.908C714.624 150.123 714.041 150.23 713.459 150.23C712.815 150.23 712.209 150.1 711.642 149.839C711.09 149.563 710.645 149.172 710.308 148.666C709.97 148.16 709.802 147.547 709.802 146.826C709.802 145.799 710.162 144.978 710.883 144.365C711.619 143.736 712.638 143.422 713.942 143.422C714.708 143.422 715.345 143.514 715.851 143.698C716.372 143.867 716.786 144.066 717.093 144.296C717.399 144.511 717.606 144.687 717.714 144.825V145.906C717.177 145.538 716.625 145.277 716.058 145.124C715.49 144.955 714.885 144.871 714.241 144.871C713.643 144.871 713.152 144.948 712.769 145.101C712.401 145.254 712.125 145.469 711.941 145.745C711.757 146.021 711.665 146.351 711.665 146.734ZM711.389 141.858L710.492 140.501C710.89 140.21 711.435 139.918 712.125 139.627C712.83 139.336 713.673 139.19 714.655 139.19C715.483 139.19 716.203 139.32 716.817 139.581C717.445 139.826 717.928 140.187 718.266 140.662C718.618 141.137 718.795 141.72 718.795 142.41V150H716.955V142.663C716.955 142.295 716.893 141.996 716.771 141.766C716.648 141.521 716.472 141.329 716.242 141.191C716.027 141.053 715.774 140.953 715.483 140.892C715.191 140.831 714.885 140.8 714.563 140.8C714.041 140.8 713.566 140.861 713.137 140.984C712.723 141.107 712.37 141.252 712.079 141.421C711.787 141.59 711.557 141.735 711.389 141.858ZM736.4 143.33V150H734.56V143.56C734.56 142.655 734.391 141.988 734.054 141.559C733.732 141.13 733.226 140.915 732.536 140.915C732.03 140.915 731.593 141.022 731.225 141.237C730.857 141.436 730.573 141.735 730.374 142.134C730.175 142.533 730.075 143.008 730.075 143.56V150H728.235V143.56C728.235 142.655 728.066 141.988 727.729 141.559C727.407 141.13 726.901 140.915 726.211 140.915C725.705 140.915 725.268 141.022 724.9 141.237C724.532 141.436 724.248 141.735 724.049 142.134C723.85 142.533 723.75 143.008 723.75 143.56V150H721.91V139.42H723.75V140.961C724.072 140.363 724.471 139.918 724.946 139.627C725.437 139.336 726.012 139.19 726.671 139.19C727.407 139.19 728.036 139.366 728.557 139.719C729.094 140.056 729.485 140.539 729.73 141.168C730.098 140.509 730.558 140.018 731.11 139.696C731.662 139.359 732.291 139.19 732.996 139.19C733.717 139.19 734.33 139.351 734.836 139.673C735.342 139.995 735.725 140.47 735.986 141.099C736.262 141.712 736.4 142.456 736.4 143.33ZM743.95 150.23C742.969 150.23 742.095 150 741.328 149.54C740.577 149.065 739.987 148.413 739.557 147.585C739.143 146.757 738.936 145.799 738.936 144.71C738.936 143.606 739.151 142.64 739.58 141.812C740.025 140.984 740.638 140.34 741.42 139.88C742.218 139.42 743.138 139.19 744.18 139.19C745.223 139.19 746.112 139.412 746.848 139.857C747.6 140.286 748.175 140.907 748.573 141.72C748.972 142.533 749.171 143.499 749.171 144.618C749.171 144.725 749.164 144.84 749.148 144.963C749.148 145.07 749.148 145.139 749.148 145.17H740.109V143.606H747.699L746.963 144.664C747.009 144.587 747.055 144.472 747.101 144.319C747.147 144.15 747.17 144.012 747.17 143.905C747.17 143.276 747.04 142.732 746.779 142.272C746.534 141.812 746.189 141.452 745.744 141.191C745.3 140.93 744.778 140.8 744.18 140.8C743.475 140.8 742.869 140.953 742.363 141.26C741.873 141.551 741.489 141.981 741.213 142.548C740.953 143.1 740.815 143.782 740.799 144.595C740.799 145.423 740.93 146.128 741.19 146.711C741.451 147.294 741.834 147.738 742.34 148.045C742.846 148.352 743.46 148.505 744.18 148.505C744.901 148.505 745.537 148.352 746.089 148.045C746.641 147.723 747.109 147.24 747.492 146.596L748.987 147.539C748.435 148.428 747.738 149.103 746.894 149.563C746.066 150.008 745.085 150.23 743.95 150.23ZM759.628 132.06H761.468V150H759.628V132.06ZM750.773 144.71C750.773 143.56 751.011 142.579 751.486 141.766C751.962 140.938 752.598 140.302 753.395 139.857C754.193 139.412 755.067 139.19 756.017 139.19C756.907 139.19 757.681 139.412 758.34 139.857C759 140.302 759.513 140.938 759.881 141.766C760.265 142.579 760.456 143.56 760.456 144.71C760.456 145.845 760.265 146.826 759.881 147.654C759.513 148.482 759 149.118 758.34 149.563C757.681 150.008 756.907 150.23 756.017 150.23C755.067 150.23 754.193 150.008 753.395 149.563C752.598 149.118 751.962 148.482 751.486 147.654C751.011 146.826 750.773 145.845 750.773 144.71ZM752.636 144.71C752.636 145.523 752.797 146.213 753.119 146.78C753.457 147.347 753.901 147.777 754.453 148.068C755.005 148.359 755.603 148.505 756.247 148.505C756.784 148.505 757.313 148.359 757.834 148.068C758.356 147.777 758.785 147.347 759.122 146.78C759.46 146.213 759.628 145.523 759.628 144.71C759.628 143.897 759.46 143.207 759.122 142.64C758.785 142.073 758.356 141.643 757.834 141.352C757.313 141.061 756.784 140.915 756.247 140.915C755.603 140.915 755.005 141.061 754.453 141.352C753.901 141.643 753.457 142.073 753.119 142.64C752.797 143.207 752.636 143.897 752.636 144.71ZM784.011 133.9H785.966V150.805L773.776 138.017V150H771.821V133.095L784.011 145.883V133.9ZM790.368 146.734C790.368 147.133 790.46 147.478 790.644 147.769C790.843 148.06 791.112 148.283 791.449 148.436C791.802 148.574 792.2 148.643 792.645 148.643C793.212 148.643 793.718 148.528 794.163 148.298C794.623 148.068 794.983 147.746 795.244 147.332C795.52 146.903 795.658 146.412 795.658 145.86L796.026 147.24C796.026 147.915 795.819 148.474 795.405 148.919C795.006 149.364 794.508 149.693 793.91 149.908C793.327 150.123 792.745 150.23 792.162 150.23C791.518 150.23 790.912 150.1 790.345 149.839C789.793 149.563 789.348 149.172 789.011 148.666C788.674 148.16 788.505 147.547 788.505 146.826C788.505 145.799 788.865 144.978 789.586 144.365C790.322 143.736 791.342 143.422 792.645 143.422C793.412 143.422 794.048 143.514 794.554 143.698C795.075 143.867 795.489 144.066 795.796 144.296C796.103 144.511 796.31 144.687 796.417 144.825V145.906C795.88 145.538 795.328 145.277 794.761 145.124C794.194 144.955 793.588 144.871 792.944 144.871C792.346 144.871 791.855 144.948 791.472 145.101C791.104 145.254 790.828 145.469 790.644 145.745C790.46 146.021 790.368 146.351 790.368 146.734ZM790.092 141.858L789.195 140.501C789.594 140.21 790.138 139.918 790.828 139.627C791.533 139.336 792.377 139.19 793.358 139.19C794.186 139.19 794.907 139.32 795.52 139.581C796.149 139.826 796.632 140.187 796.969 140.662C797.322 141.137 797.498 141.72 797.498 142.41V150H795.658V142.663C795.658 142.295 795.597 141.996 795.474 141.766C795.351 141.521 795.175 141.329 794.945 141.191C794.73 141.053 794.477 140.953 794.186 140.892C793.895 140.831 793.588 140.8 793.266 140.8C792.745 140.8 792.269 140.861 791.84 140.984C791.426 141.107 791.073 141.252 790.782 141.421C790.491 141.59 790.261 141.735 790.092 141.858ZM801.05 146.757C801.265 147.079 801.51 147.378 801.786 147.654C802.062 147.93 802.377 148.152 802.729 148.321C803.097 148.474 803.496 148.551 803.925 148.551C804.447 148.551 804.853 148.436 805.144 148.206C805.451 147.961 805.604 147.631 805.604 147.217C805.604 146.849 805.482 146.542 805.236 146.297C805.006 146.036 804.707 145.822 804.339 145.653C803.971 145.469 803.58 145.3 803.166 145.147C802.706 144.963 802.239 144.748 801.763 144.503C801.303 144.242 800.912 143.913 800.59 143.514C800.284 143.1 800.13 142.586 800.13 141.973C800.13 141.344 800.291 140.823 800.613 140.409C800.951 139.995 801.38 139.688 801.901 139.489C802.438 139.29 802.99 139.19 803.557 139.19C804.125 139.19 804.654 139.282 805.144 139.466C805.65 139.65 806.095 139.895 806.478 140.202C806.862 140.509 807.161 140.861 807.375 141.26L805.903 142.203C805.612 141.804 805.244 141.475 804.799 141.214C804.37 140.953 803.879 140.823 803.327 140.823C802.944 140.823 802.614 140.907 802.338 141.076C802.062 141.245 801.924 141.505 801.924 141.858C801.924 142.134 802.032 142.379 802.246 142.594C802.461 142.809 802.737 143 803.074 143.169C803.412 143.338 803.764 143.499 804.132 143.652C804.746 143.897 805.305 144.166 805.811 144.457C806.317 144.733 806.716 145.07 807.007 145.469C807.314 145.868 807.467 146.381 807.467 147.01C807.467 147.93 807.13 148.697 806.455 149.31C805.796 149.923 804.922 150.23 803.833 150.23C803.128 150.23 802.492 150.107 801.924 149.862C801.357 149.601 800.874 149.272 800.475 148.873C800.092 148.474 799.801 148.068 799.601 147.654L801.05 146.757ZM810.327 146.757C810.541 147.079 810.787 147.378 811.063 147.654C811.339 147.93 811.653 148.152 812.006 148.321C812.374 148.474 812.772 148.551 813.202 148.551C813.723 148.551 814.129 148.436 814.421 148.206C814.727 147.961 814.881 147.631 814.881 147.217C814.881 146.849 814.758 146.542 814.513 146.297C814.283 146.036 813.984 145.822 813.616 145.653C813.248 145.469 812.857 145.3 812.443 145.147C811.983 144.963 811.515 144.748 811.04 144.503C810.58 144.242 810.189 143.913 809.867 143.514C809.56 143.1 809.407 142.586 809.407 141.973C809.407 141.344 809.568 140.823 809.89 140.409C810.227 139.995 810.656 139.688 811.178 139.489C811.714 139.29 812.266 139.19 812.834 139.19C813.401 139.19 813.93 139.282 814.421 139.466C814.927 139.65 815.371 139.895 815.755 140.202C816.138 140.509 816.437 140.861 816.652 141.26L815.18 142.203C814.888 141.804 814.52 141.475 814.076 141.214C813.646 140.953 813.156 140.823 812.604 140.823C812.22 140.823 811.891 140.907 811.615 141.076C811.339 141.245 811.201 141.505 811.201 141.858C811.201 142.134 811.308 142.379 811.523 142.594C811.737 142.809 812.013 143 812.351 143.169C812.688 143.338 813.041 143.499 813.409 143.652C814.022 143.897 814.582 144.166 815.088 144.457C815.594 144.733 815.992 145.07 816.284 145.469C816.59 145.868 816.744 146.381 816.744 147.01C816.744 147.93 816.406 148.697 815.732 149.31C815.072 149.923 814.198 150.23 813.11 150.23C812.404 150.23 811.768 150.107 811.201 149.862C810.633 149.601 810.15 149.272 809.752 148.873C809.368 148.474 809.077 148.068 808.878 147.654L810.327 146.757ZM819.166 135.05C819.166 134.697 819.289 134.398 819.534 134.153C819.795 133.908 820.094 133.785 820.431 133.785C820.784 133.785 821.083 133.908 821.328 134.153C821.573 134.398 821.696 134.697 821.696 135.05C821.696 135.387 821.573 135.686 821.328 135.947C821.083 136.192 820.784 136.315 820.431 136.315C820.094 136.315 819.795 136.192 819.534 135.947C819.289 135.686 819.166 135.387 819.166 135.05ZM819.511 139.42H821.351V150H819.511V139.42ZM839.631 143.33V150H837.791V143.56C837.791 142.655 837.622 141.988 837.285 141.559C836.963 141.13 836.457 140.915 835.767 140.915C835.261 140.915 834.824 141.022 834.456 141.237C834.088 141.436 833.804 141.735 833.605 142.134C833.405 142.533 833.306 143.008 833.306 143.56V150H831.466V143.56C831.466 142.655 831.297 141.988 830.96 141.559C830.638 141.13 830.132 140.915 829.442 140.915C828.936 140.915 828.499 141.022 828.131 141.237C827.763 141.436 827.479 141.735 827.28 142.134C827.08 142.533 826.981 143.008 826.981 143.56V150H825.141V139.42H826.981V140.961C827.303 140.363 827.701 139.918 828.177 139.627C828.667 139.336 829.242 139.19 829.902 139.19C830.638 139.19 831.266 139.366 831.788 139.719C832.324 140.056 832.715 140.539 832.961 141.168C833.329 140.509 833.789 140.018 834.341 139.696C834.893 139.359 835.521 139.19 836.227 139.19C836.947 139.19 837.561 139.351 838.067 139.673C838.573 139.995 838.956 140.47 839.217 141.099C839.493 141.712 839.631 142.456 839.631 143.33ZM843.547 149.08C843.547 148.727 843.669 148.428 843.915 148.183C844.175 147.938 844.474 147.815 844.812 147.815C845.164 147.815 845.463 147.938 845.709 148.183C845.954 148.428 846.077 148.727 846.077 149.08C846.077 149.417 845.954 149.716 845.709 149.977C845.463 150.222 845.164 150.345 844.812 150.345C844.474 150.345 844.175 150.222 843.915 149.977C843.669 149.716 843.547 149.417 843.547 149.08ZM851.638 145.17L852.328 143.33H859.458L860.148 145.17H851.638ZM855.847 137.534L853.133 143.928L852.949 144.342L850.557 150H848.372L855.847 133.095L863.322 150H861.137L858.791 144.48L858.607 144.02L855.847 137.534ZM865.166 132.06H867.006V150H865.166V132.06ZM870.467 132.06H872.307V150H870.467V132.06ZM885.653 142.065H887.838L893.588 150H891.173L885.653 142.065ZM882.778 133.9H884.733V150H882.778V133.9ZM883.859 135.625V133.9H887.148C888.191 133.9 889.118 134.099 889.931 134.498C890.759 134.881 891.411 135.433 891.886 136.154C892.377 136.875 892.622 137.733 892.622 138.73C892.622 139.711 892.377 140.57 891.886 141.306C891.411 142.027 890.759 142.586 889.931 142.985C889.118 143.368 888.191 143.56 887.148 143.56H883.859V141.835H887.148C887.838 141.835 888.444 141.712 888.965 141.467C889.502 141.222 889.916 140.869 890.207 140.409C890.514 139.949 890.667 139.389 890.667 138.73C890.667 138.071 890.514 137.511 890.207 137.051C889.916 136.591 889.502 136.238 888.965 135.993C888.444 135.748 887.838 135.625 887.148 135.625H883.859ZM895.533 135.05C895.533 134.697 895.656 134.398 895.901 134.153C896.162 133.908 896.461 133.785 896.798 133.785C897.151 133.785 897.45 133.908 897.695 134.153C897.94 134.398 898.063 134.697 898.063 135.05C898.063 135.387 897.94 135.686 897.695 135.947C897.45 136.192 897.151 136.315 896.798 136.315C896.461 136.315 896.162 136.192 895.901 135.947C895.656 135.686 895.533 135.387 895.533 135.05ZM895.878 139.42H897.718V150H895.878V139.42ZM900.795 150.69H902.658C902.658 151.196 902.796 151.664 903.072 152.093C903.348 152.538 903.739 152.89 904.245 153.151C904.751 153.427 905.349 153.565 906.039 153.565C906.575 153.565 907.104 153.435 907.626 153.174C908.147 152.913 908.576 152.499 908.914 151.932C909.266 151.38 909.443 150.659 909.443 149.77V139.42H911.283V149.77C911.283 150.981 911.03 151.993 910.524 152.806C910.018 153.634 909.366 154.255 908.569 154.669C907.771 155.083 906.928 155.29 906.039 155.29C905.011 155.29 904.099 155.098 903.302 154.715C902.52 154.332 901.906 153.787 901.462 153.082C901.017 152.392 900.795 151.595 900.795 150.69ZM900.588 144.71C900.588 143.56 900.825 142.579 901.301 141.766C901.776 140.938 902.412 140.302 903.21 139.857C904.007 139.412 904.881 139.19 905.832 139.19C906.721 139.19 907.495 139.412 908.155 139.857C908.814 140.302 909.328 140.938 909.696 141.766C910.079 142.579 910.271 143.56 910.271 144.71C910.271 145.845 910.079 146.826 909.696 147.654C909.328 148.482 908.814 149.118 908.155 149.563C907.495 150.008 906.721 150.23 905.832 150.23C904.881 150.23 904.007 150.008 903.21 149.563C902.412 149.118 901.776 148.482 901.301 147.654C900.825 146.826 900.588 145.845 900.588 144.71ZM902.451 144.71C902.451 145.523 902.612 146.213 902.934 146.78C903.271 147.347 903.716 147.777 904.268 148.068C904.82 148.359 905.418 148.505 906.062 148.505C906.598 148.505 907.127 148.359 907.649 148.068C908.17 147.777 908.599 147.347 908.937 146.78C909.274 146.213 909.443 145.523 909.443 144.71C909.443 144.097 909.343 143.56 909.144 143.1C908.944 142.625 908.676 142.226 908.339 141.904C908.017 141.582 907.656 141.337 907.258 141.168C906.859 140.999 906.46 140.915 906.062 140.915C905.418 140.915 904.82 141.061 904.268 141.352C903.716 141.643 903.271 142.073 902.934 142.64C902.612 143.207 902.451 143.897 902.451 144.71ZM916.465 132.06V150H914.625V132.06H916.465ZM921.41 143.56C921.41 142.686 921.218 142.027 920.835 141.582C920.467 141.137 919.907 140.915 919.156 140.915C918.619 140.915 918.144 141.03 917.73 141.26C917.331 141.49 917.017 141.804 916.787 142.203C916.572 142.602 916.465 143.054 916.465 143.56H915.867C915.867 142.717 916.028 141.973 916.35 141.329C916.672 140.67 917.109 140.148 917.661 139.765C918.228 139.382 918.88 139.19 919.616 139.19C920.352 139.19 920.988 139.343 921.525 139.65C922.077 139.957 922.499 140.417 922.79 141.03C923.097 141.643 923.25 142.41 923.25 143.33V150H921.41V143.56ZM925.099 139.42H930.389V141.145H925.099V139.42ZM926.824 135.74H928.664V150H926.824V135.74ZM932.671 146.757C932.886 147.079 933.131 147.378 933.407 147.654C933.683 147.93 933.998 148.152 934.35 148.321C934.718 148.474 935.117 148.551 935.546 148.551C936.068 148.551 936.474 148.436 936.765 148.206C937.072 147.961 937.225 147.631 937.225 147.217C937.225 146.849 937.103 146.542 936.857 146.297C936.627 146.036 936.328 145.822 935.96 145.653C935.592 145.469 935.201 145.3 934.787 145.147C934.327 144.963 933.86 144.748 933.384 144.503C932.924 144.242 932.533 143.913 932.211 143.514C931.905 143.1 931.751 142.586 931.751 141.973C931.751 141.344 931.912 140.823 932.234 140.409C932.572 139.995 933.001 139.688 933.522 139.489C934.059 139.29 934.611 139.19 935.178 139.19C935.746 139.19 936.275 139.282 936.765 139.466C937.271 139.65 937.716 139.895 938.099 140.202C938.483 140.509 938.782 140.861 938.996 141.26L937.524 142.203C937.233 141.804 936.865 141.475 936.42 141.214C935.991 140.953 935.5 140.823 934.948 140.823C934.565 140.823 934.235 140.907 933.959 141.076C933.683 141.245 933.545 141.505 933.545 141.858C933.545 142.134 933.653 142.379 933.867 142.594C934.082 142.809 934.358 143 934.695 143.169C935.033 143.338 935.385 143.499 935.753 143.652C936.367 143.897 936.926 144.166 937.432 144.457C937.938 144.733 938.337 145.07 938.628 145.469C938.935 145.868 939.088 146.381 939.088 147.01C939.088 147.93 938.751 148.697 938.076 149.31C937.417 149.923 936.543 150.23 935.454 150.23C934.749 150.23 934.113 150.107 933.545 149.862C932.978 149.601 932.495 149.272 932.096 148.873C931.713 148.474 931.422 148.068 931.222 147.654L932.671 146.757ZM951.396 142.065H953.581L959.331 150H956.916L951.396 142.065ZM948.521 133.9H950.476V150H948.521V133.9ZM949.602 135.625V133.9H952.891C953.934 133.9 954.861 134.099 955.674 134.498C956.502 134.881 957.154 135.433 957.629 136.154C958.12 136.875 958.365 137.733 958.365 138.73C958.365 139.711 958.12 140.57 957.629 141.306C957.154 142.027 956.502 142.586 955.674 142.985C954.861 143.368 953.934 143.56 952.891 143.56H949.602V141.835H952.891C953.581 141.835 954.187 141.712 954.708 141.467C955.245 141.222 955.659 140.869 955.95 140.409C956.257 139.949 956.41 139.389 956.41 138.73C956.41 138.071 956.257 137.511 955.95 137.051C955.659 136.591 955.245 136.238 954.708 135.993C954.187 135.748 953.581 135.625 952.891 135.625H949.602ZM965.37 150.23C964.389 150.23 963.515 150 962.748 149.54C961.997 149.065 961.407 148.413 960.977 147.585C960.563 146.757 960.356 145.799 960.356 144.71C960.356 143.606 960.571 142.64 961 141.812C961.445 140.984 962.058 140.34 962.84 139.88C963.638 139.42 964.558 139.19 965.6 139.19C966.643 139.19 967.532 139.412 968.268 139.857C969.02 140.286 969.595 140.907 969.993 141.72C970.392 142.533 970.591 143.499 970.591 144.618C970.591 144.725 970.584 144.84 970.568 144.963C970.568 145.07 970.568 145.139 970.568 145.17H961.529V143.606H969.119L968.383 144.664C968.429 144.587 968.475 144.472 968.521 144.319C968.567 144.15 968.59 144.012 968.59 143.905C968.59 143.276 968.46 142.732 968.199 142.272C967.954 141.812 967.609 141.452 967.164 141.191C966.72 140.93 966.198 140.8 965.6 140.8C964.895 140.8 964.289 140.953 963.783 141.26C963.293 141.551 962.909 141.981 962.633 142.548C962.373 143.1 962.235 143.782 962.219 144.595C962.219 145.423 962.35 146.128 962.61 146.711C962.871 147.294 963.254 147.738 963.76 148.045C964.266 148.352 964.88 148.505 965.6 148.505C966.321 148.505 966.957 148.352 967.509 148.045C968.061 147.723 968.529 147.24 968.912 146.596L970.407 147.539C969.855 148.428 969.158 149.103 968.314 149.563C967.486 150.008 966.505 150.23 965.37 150.23ZM973.55 146.757C973.765 147.079 974.01 147.378 974.286 147.654C974.562 147.93 974.877 148.152 975.229 148.321C975.597 148.474 975.996 148.551 976.425 148.551C976.947 148.551 977.353 148.436 977.644 148.206C977.951 147.961 978.104 147.631 978.104 147.217C978.104 146.849 977.982 146.542 977.736 146.297C977.506 146.036 977.207 145.822 976.839 145.653C976.471 145.469 976.08 145.3 975.666 145.147C975.206 144.963 974.739 144.748 974.263 144.503C973.803 144.242 973.412 143.913 973.09 143.514C972.784 143.1 972.63 142.586 972.63 141.973C972.63 141.344 972.791 140.823 973.113 140.409C973.451 139.995 973.88 139.688 974.401 139.489C974.938 139.29 975.49 139.19 976.057 139.19C976.625 139.19 977.154 139.282 977.644 139.466C978.15 139.65 978.595 139.895 978.978 140.202C979.362 140.509 979.661 140.861 979.875 141.26L978.403 142.203C978.112 141.804 977.744 141.475 977.299 141.214C976.87 140.953 976.379 140.823 975.827 140.823C975.444 140.823 975.114 140.907 974.838 141.076C974.562 141.245 974.424 141.505 974.424 141.858C974.424 142.134 974.532 142.379 974.746 142.594C974.961 142.809 975.237 143 975.574 143.169C975.912 143.338 976.264 143.499 976.632 143.652C977.246 143.897 977.805 144.166 978.311 144.457C978.817 144.733 979.216 145.07 979.507 145.469C979.814 145.868 979.967 146.381 979.967 147.01C979.967 147.93 979.63 148.697 978.955 149.31C978.296 149.923 977.422 150.23 976.333 150.23C975.628 150.23 974.992 150.107 974.424 149.862C973.857 149.601 973.374 149.272 972.975 148.873C972.592 148.474 972.301 148.068 972.101 147.654L973.55 146.757ZM986.484 150.23C985.502 150.23 984.628 150 983.862 149.54C983.11 149.065 982.52 148.413 982.091 147.585C981.677 146.757 981.47 145.799 981.47 144.71C981.47 143.606 981.684 142.64 982.114 141.812C982.558 140.984 983.172 140.34 983.954 139.88C984.751 139.42 985.671 139.19 986.714 139.19C987.756 139.19 988.646 139.412 989.382 139.857C990.133 140.286 990.708 140.907 991.107 141.72C991.505 142.533 991.705 143.499 991.705 144.618C991.705 144.725 991.697 144.84 991.682 144.963C991.682 145.07 991.682 145.139 991.682 145.17H982.643V143.606H990.233L989.497 144.664C989.543 144.587 989.589 144.472 989.635 144.319C989.681 144.15 989.704 144.012 989.704 143.905C989.704 143.276 989.573 142.732 989.313 142.272C989.067 141.812 988.722 141.452 988.278 141.191C987.833 140.93 987.312 140.8 986.714 140.8C986.008 140.8 985.403 140.953 984.897 141.26C984.406 141.551 984.023 141.981 983.747 142.548C983.486 143.1 983.348 143.782 983.333 144.595C983.333 145.423 983.463 146.128 983.724 146.711C983.984 147.294 984.368 147.738 984.874 148.045C985.38 148.352 985.993 148.505 986.714 148.505C987.434 148.505 988.071 148.352 988.623 148.045C989.175 147.723 989.642 147.24 990.026 146.596L991.521 147.539C990.969 148.428 990.271 149.103 989.428 149.563C988.6 150.008 987.618 150.23 986.484 150.23ZM996.066 139.42V150H994.226V139.42H996.066ZM999.263 141.444C999.018 141.26 998.796 141.13 998.596 141.053C998.397 140.961 998.144 140.915 997.837 140.915C997.377 140.915 997.017 141.03 996.756 141.26C996.496 141.49 996.312 141.804 996.204 142.203C996.112 142.602 996.066 143.054 996.066 143.56H995.238C995.238 142.717 995.384 141.973 995.675 141.329C995.982 140.67 996.373 140.148 996.848 139.765C997.324 139.382 997.807 139.19 998.297 139.19C998.681 139.19 999.033 139.244 999.355 139.351C999.693 139.443 999.999 139.635 1000.28 139.926L999.263 141.444ZM1001.08 139.42H1003.15L1006.14 146.895L1009.13 139.42H1011.2L1006.14 150.805L1001.08 139.42ZM1016.69 150.23C1015.71 150.23 1014.84 150 1014.07 149.54C1013.32 149.065 1012.73 148.413 1012.3 147.585C1011.89 146.757 1011.68 145.799 1011.68 144.71C1011.68 143.606 1011.89 142.64 1012.32 141.812C1012.77 140.984 1013.38 140.34 1014.16 139.88C1014.96 139.42 1015.88 139.19 1016.92 139.19C1017.97 139.19 1018.86 139.412 1019.59 139.857C1020.34 140.286 1020.92 140.907 1021.32 141.72C1021.72 142.533 1021.91 143.499 1021.91 144.618C1021.91 144.725 1021.91 144.84 1021.89 144.963C1021.89 145.07 1021.89 145.139 1021.89 145.17H1012.85V143.606H1020.44L1019.71 144.664C1019.75 144.587 1019.8 144.472 1019.84 144.319C1019.89 144.15 1019.91 144.012 1019.91 143.905C1019.91 143.276 1019.78 142.732 1019.52 142.272C1019.28 141.812 1018.93 141.452 1018.49 141.191C1018.04 140.93 1017.52 140.8 1016.92 140.8C1016.22 140.8 1015.61 140.953 1015.11 141.26C1014.62 141.551 1014.23 141.981 1013.96 142.548C1013.7 143.1 1013.56 143.782 1013.54 144.595C1013.54 145.423 1013.67 146.128 1013.93 146.711C1014.19 147.294 1014.58 147.738 1015.08 148.045C1015.59 148.352 1016.2 148.505 1016.92 148.505C1017.64 148.505 1018.28 148.352 1018.83 148.045C1019.38 147.723 1019.85 147.24 1020.24 146.596L1021.73 147.539C1021.18 148.428 1020.48 149.103 1019.64 149.563C1018.81 150.008 1017.83 150.23 1016.69 150.23ZM1032.37 132.06H1034.21V150H1032.37V132.06ZM1023.52 144.71C1023.52 143.56 1023.75 142.579 1024.23 141.766C1024.7 140.938 1025.34 140.302 1026.14 139.857C1026.94 139.412 1027.81 139.19 1028.76 139.19C1029.65 139.19 1030.42 139.412 1031.08 139.857C1031.74 140.302 1032.26 140.938 1032.62 141.766C1033.01 142.579 1033.2 143.56 1033.2 144.71C1033.2 145.845 1033.01 146.826 1032.62 147.654C1032.26 148.482 1031.74 149.118 1031.08 149.563C1030.42 150.008 1029.65 150.23 1028.76 150.23C1027.81 150.23 1026.94 150.008 1026.14 149.563C1025.34 149.118 1024.7 148.482 1024.23 147.654C1023.75 146.826 1023.52 145.845 1023.52 144.71ZM1025.38 144.71C1025.38 145.523 1025.54 146.213 1025.86 146.78C1026.2 147.347 1026.64 147.777 1027.2 148.068C1027.75 148.359 1028.35 148.505 1028.99 148.505C1029.53 148.505 1030.06 148.359 1030.58 148.068C1031.1 147.777 1031.53 147.347 1031.87 146.78C1032.2 146.213 1032.37 145.523 1032.37 144.71C1032.37 143.897 1032.2 143.207 1031.87 142.64C1031.53 142.073 1031.1 141.643 1030.58 141.352C1030.06 141.061 1029.53 140.915 1028.99 140.915C1028.35 140.915 1027.75 141.061 1027.2 141.352C1026.64 141.643 1026.2 142.073 1025.86 142.64C1025.54 143.207 1025.38 143.897 1025.38 144.71Z" fill="black"/>
<path d="M358.497 39.0498C358.054 39.0498 357.733 39.0111 357.534 38.9336C357.335 38.8451 357.235 38.7178 357.235 38.5518C357.235 38.4743 357.263 38.3415 357.318 38.1533L364.308 18.7461C364.418 18.4251 364.811 18.2646 365.486 18.2646H366.35C367.025 18.2646 367.418 18.4251 367.528 18.7461L374.518 38.1699C374.573 38.2917 374.601 38.4189 374.601 38.5518C374.601 38.8838 374.186 39.0498 373.355 39.0498H373.106C372.42 39.0498 372.022 38.8949 371.911 38.585L370.185 33.7373H361.519L359.825 38.585C359.726 38.8949 359.333 39.0498 358.646 39.0498H358.497ZM369.388 31.4961L366.3 22.7139C366.211 22.4704 366.139 22.1937 366.084 21.8838C366.029 21.5739 365.979 21.2751 365.935 20.9873H365.868C365.735 21.7288 365.586 22.3044 365.42 22.7139L362.332 31.4961H369.388ZM384.445 39.166C382.719 39.166 381.153 38.43 379.747 36.958C379.659 37.5667 379.498 38.1478 379.266 38.7012C379.221 38.834 379.133 38.9281 379 38.9834C378.878 39.0277 378.707 39.0498 378.485 39.0498H378.369C378.059 39.0498 377.832 39 377.688 38.9004C377.556 38.7897 377.489 38.6237 377.489 38.4023V17.4512C377.489 17.0195 377.877 16.8037 378.651 16.8037H378.784C379.559 16.8037 379.946 17.0195 379.946 17.4512V24.8887C380.588 24.4017 381.241 24.0309 381.905 23.7764C382.569 23.5218 383.327 23.3945 384.18 23.3945C385.353 23.3945 386.393 23.6989 387.301 24.3076C388.208 24.9163 388.911 25.8128 389.409 26.9971C389.918 28.1813 390.173 29.6035 390.173 31.2637C390.173 32.791 389.94 34.1579 389.476 35.3643C389.011 36.5596 388.347 37.4948 387.483 38.1699C386.62 38.834 385.607 39.166 384.445 39.166ZM383.947 37.0244C385.109 37.0244 386 36.5098 386.62 35.4805C387.251 34.4401 387.566 32.9681 387.566 31.0645C387.566 29.2936 387.234 27.9434 386.57 27.0137C385.906 26.084 384.921 25.6025 383.615 25.5693C382.962 25.5693 382.32 25.68 381.689 25.9014C381.059 26.1227 380.478 26.4548 379.946 26.8975V34.9824C380.555 35.6354 381.208 36.139 381.905 36.4932C382.603 36.8473 383.283 37.0244 383.947 37.0244ZM400.233 39.166C398.009 39.166 396.31 38.502 395.137 37.1738C393.975 35.8346 393.394 33.8923 393.394 31.3467C393.394 28.8011 393.986 26.8421 395.17 25.4697C396.354 24.0863 398.042 23.3945 400.233 23.3945C402.403 23.3945 404.063 24.0807 405.214 25.4531C406.365 26.8145 406.94 28.779 406.94 31.3467C406.94 33.9033 406.37 35.8457 405.23 37.1738C404.102 38.502 402.436 39.166 400.233 39.166ZM400.15 37.041C401.589 37.041 402.652 36.5762 403.338 35.6465C404.024 34.7057 404.367 33.2559 404.367 31.2969C404.367 29.3268 404.024 27.8714 403.338 26.9307C402.652 25.9899 401.589 25.5195 400.15 25.5195C398.723 25.5195 397.671 25.9899 396.996 26.9307C396.321 27.8604 395.983 29.3158 395.983 31.2969C395.983 33.2669 396.315 34.7168 396.979 35.6465C397.655 36.5762 398.712 37.041 400.15 37.041ZM415.59 39.166C414.085 39.166 412.906 38.7454 412.054 37.9043C411.201 37.0521 410.775 35.8789 410.775 34.3848V24.1582C410.775 23.7266 411.174 23.5107 411.971 23.5107H412.087C412.873 23.5107 413.266 23.7266 413.266 24.1582V34.1523C413.266 35.0599 413.526 35.7682 414.046 36.2773C414.577 36.7754 415.319 37.0244 416.271 37.0244C416.935 37.0244 417.599 36.8418 418.263 36.4766C418.927 36.1003 419.502 35.5911 419.989 34.9492V24.1582C419.989 23.7266 420.382 23.5107 421.168 23.5107H421.284C422.081 23.5107 422.479 23.7266 422.479 24.1582V34.6338C422.479 35.9176 422.535 36.8473 422.646 37.4229C422.756 37.9873 422.812 38.2972 422.812 38.3525C422.812 38.596 422.629 38.7731 422.264 38.8838C421.898 38.9834 421.555 39.0332 421.234 39.0332C420.958 39.0332 420.753 38.8783 420.62 38.5684C420.487 38.2474 420.388 37.9209 420.321 37.5889C420.266 37.2568 420.227 37.0465 420.205 36.958C419.585 37.6553 418.866 38.1976 418.047 38.585C417.239 38.9723 416.42 39.166 415.59 39.166ZM431.976 39.166C430.991 39.166 430.111 38.8672 429.336 38.2695C428.561 37.6719 428.174 36.6149 428.174 35.0986V25.6855H426.696C426.486 25.6855 426.331 25.6191 426.231 25.4863C426.143 25.3424 426.099 25.1156 426.099 24.8057V24.4404C426.099 24.1305 426.143 23.9092 426.231 23.7764C426.331 23.6325 426.486 23.5605 426.696 23.5605H428.174L428.522 20.4727C428.545 20.041 428.86 19.8252 429.469 19.8252H429.751C430.061 19.8252 430.288 19.8805 430.432 19.9912C430.576 20.0908 430.647 20.2513 430.647 20.4727V23.5605H433.121C433.331 23.5605 433.481 23.6325 433.569 23.7764C433.669 23.9092 433.719 24.1305 433.719 24.4404V24.8057C433.719 25.1156 433.669 25.3424 433.569 25.4863C433.481 25.6191 433.331 25.6855 433.121 25.6855H430.647V34.8662C430.647 35.6742 430.786 36.2386 431.062 36.5596C431.35 36.8805 431.738 37.041 432.225 37.041C432.601 37.041 432.889 37.0189 433.088 36.9746C433.298 36.9303 433.437 36.9082 433.503 36.9082C433.68 36.9082 433.824 37.0853 433.935 37.4395C434.056 37.7936 434.117 38.0758 434.117 38.2861C434.117 38.8727 433.403 39.166 431.976 39.166Z" fill="black"/>
<path d="M545.469 39C545.159 39 544.932 38.9281 544.788 38.7842C544.644 38.6403 544.572 38.4189 544.572 38.1201V19.2275C544.572 18.9176 544.644 18.6963 544.788 18.5635C544.932 18.4196 545.159 18.3477 545.469 18.3477H555.762C555.972 18.3477 556.121 18.4141 556.21 18.5469C556.31 18.6797 556.359 18.9066 556.359 19.2275V19.709C556.359 20.0078 556.31 20.2292 556.21 20.373C556.121 20.5169 555.972 20.5889 555.762 20.5889H547.179V27.3125H554.882C555.092 27.3125 555.242 27.3844 555.33 27.5283C555.43 27.6722 555.479 27.8991 555.479 28.209V28.6572C555.479 28.9671 555.43 29.194 555.33 29.3379C555.242 29.4707 555.092 29.5371 554.882 29.5371H547.179V36.7588H555.795C556.005 36.7588 556.155 36.8307 556.243 36.9746C556.343 37.1074 556.393 37.3288 556.393 37.6387V38.1201C556.393 38.4189 556.343 38.6403 556.243 38.7842C556.155 38.9281 556.005 39 555.795 39H545.469ZM559.713 39.0498C559.259 39.0498 558.933 39.0111 558.733 38.9336C558.545 38.8561 558.451 38.7288 558.451 38.5518C558.451 38.4189 558.529 38.2419 558.684 38.0205L563.465 31.0977L559.032 24.5234C558.888 24.3021 558.816 24.1305 558.816 24.0088C558.816 23.8317 558.916 23.7044 559.115 23.627C559.314 23.5495 559.658 23.5107 560.145 23.5107H560.427C560.759 23.5107 561.024 23.5439 561.224 23.6104C561.423 23.6657 561.583 23.7819 561.705 23.959L564.511 28.1592C564.677 28.4248 564.876 28.7734 565.108 29.2051C565.153 29.1276 565.23 28.9948 565.341 28.8066C565.451 28.6185 565.584 28.4027 565.739 28.1592L568.562 23.9092C568.739 23.6436 569.181 23.5107 569.89 23.5107H570.006C570.46 23.5107 570.781 23.5495 570.969 23.627C571.157 23.7044 571.251 23.8317 571.251 24.0088C571.251 24.1416 571.174 24.3132 571.019 24.5234L566.569 31.0146L571.334 38.0205C571.5 38.264 571.583 38.4411 571.583 38.5518C571.583 38.7178 571.478 38.8451 571.268 38.9336C571.057 39.0111 570.709 39.0498 570.222 39.0498H569.956C569.613 39.0498 569.342 39.0221 569.143 38.9668C568.954 38.9004 568.805 38.7786 568.694 38.6016L565.557 33.9199C565.38 33.6543 565.241 33.4329 565.142 33.2559C565.042 33.0677 564.976 32.946 564.942 32.8906C564.92 32.9349 564.854 33.0511 564.743 33.2393C564.644 33.4163 564.5 33.6432 564.312 33.9199L561.141 38.6348C560.952 38.9115 560.51 39.0498 559.812 39.0498H559.713ZM575.899 45.1426C575.103 45.1426 574.704 44.9268 574.704 44.4951V28.043C574.704 26.7591 574.643 25.835 574.521 25.2705C574.4 24.695 574.339 24.3796 574.339 24.3242C574.339 24.0807 574.521 23.9092 574.887 23.8096C575.263 23.6989 575.617 23.6436 575.949 23.6436C576.226 23.6436 576.431 23.793 576.563 24.0918C576.696 24.3906 576.79 24.695 576.846 25.0049C576.912 25.3148 576.956 25.514 576.979 25.6025C578.384 24.1305 579.95 23.3945 581.677 23.3945C582.861 23.3945 583.885 23.7321 584.748 24.4072C585.611 25.0824 586.27 26.0176 586.724 27.2129C587.177 28.4082 587.404 29.7695 587.404 31.2969C587.404 32.957 587.15 34.3792 586.641 35.5635C586.143 36.7477 585.44 37.6442 584.532 38.2529C583.625 38.8617 582.579 39.166 581.395 39.166C580.542 39.166 579.784 39.0387 579.12 38.7842C578.467 38.5296 577.82 38.1589 577.178 37.6719V44.4951C577.178 44.9268 576.79 45.1426 576.016 45.1426H575.899ZM580.83 36.9912C582.147 36.958 583.138 36.4766 583.802 35.5469C584.466 34.6172 584.798 33.2669 584.798 31.4961C584.798 29.5924 584.482 28.126 583.852 27.0967C583.232 26.0563 582.335 25.5361 581.162 25.5361C580.509 25.5361 579.828 25.7132 579.12 26.0674C578.423 26.4215 577.775 26.9251 577.178 27.5781V35.6631C578.262 36.5485 579.48 36.9912 580.83 36.9912ZM597.963 39.166C595.517 39.166 593.696 38.5296 592.501 37.2568C591.317 35.973 590.725 34.014 590.725 31.3799C590.725 28.7679 591.306 26.7868 592.468 25.4365C593.63 24.0752 595.34 23.3945 597.598 23.3945C599.612 23.3945 601.128 24.0475 602.146 25.3535C603.176 26.6595 603.69 28.5742 603.69 31.0977C603.69 31.2083 603.63 31.3633 603.508 31.5625C603.397 31.7507 603.259 31.9222 603.093 32.0771C602.938 32.221 602.805 32.293 602.694 32.293H593.381C593.503 33.9421 593.923 35.1484 594.643 35.9121C595.373 36.6647 596.469 37.041 597.93 37.041C598.749 37.041 599.451 36.9414 600.038 36.7422C600.636 36.543 601.211 36.2995 601.765 36.0117C601.82 35.9896 601.903 35.9508 602.014 35.8955C602.124 35.8402 602.202 35.8125 602.246 35.8125C602.368 35.8125 602.506 35.9121 602.661 36.1113C602.827 36.2995 602.965 36.5153 603.076 36.7588C603.198 36.9912 603.259 37.1628 603.259 37.2734C603.259 37.5169 603.015 37.7881 602.528 38.0869C602.041 38.3857 601.388 38.6403 600.569 38.8506C599.761 39.0609 598.893 39.166 597.963 39.166ZM601.051 30.168C601.051 27.069 599.872 25.5195 597.515 25.5195C594.98 25.5195 593.602 27.069 593.381 30.168H601.051ZM608.887 39.0498C608.466 39.0498 608.162 39 607.974 38.9004C607.785 38.7897 607.691 38.6237 607.691 38.4023V28.043C607.691 26.7591 607.631 25.835 607.509 25.2705C607.387 24.695 607.326 24.3796 607.326 24.3242C607.326 24.0807 607.509 23.9092 607.874 23.8096C608.25 23.6989 608.604 23.6436 608.937 23.6436C609.202 23.6436 609.401 23.7874 609.534 24.0752C609.667 24.3519 609.783 24.7448 609.883 25.2539L609.966 25.6025C611.017 24.1305 612.157 23.3945 613.386 23.3945C613.95 23.3945 614.376 23.4997 614.664 23.71C614.952 23.9092 615.096 24.1803 615.096 24.5234C615.096 24.8555 615.035 25.2096 614.913 25.5859C614.802 25.9512 614.67 26.1338 614.515 26.1338C614.437 26.1338 614.299 26.1006 614.1 26.0342C613.923 25.9567 613.745 25.9014 613.568 25.8682C613.391 25.8239 613.164 25.8018 612.888 25.8018C612.434 25.8018 612.002 25.9346 611.593 26.2002C611.194 26.4658 610.857 26.7591 610.58 27.0801C610.303 27.401 610.165 27.5781 610.165 27.6113V38.4023C610.165 38.6237 610.071 38.7897 609.883 38.9004C609.695 39 609.401 39.0498 609.003 39.0498H608.887ZM619.578 19.8418C618.792 19.8418 618.399 19.626 618.399 19.1943V17.4512C618.399 17.0195 618.792 16.8037 619.578 16.8037H619.927C620.724 16.8037 621.122 17.0195 621.122 17.4512V19.1943C621.122 19.626 620.724 19.8418 619.927 19.8418H619.578ZM619.694 39.0498C618.909 39.0498 618.516 38.834 618.516 38.4023V24.1582C618.516 23.7266 618.909 23.5107 619.694 23.5107H619.811C620.607 23.5107 621.006 23.7266 621.006 24.1582V38.4023C621.006 38.834 620.607 39.0498 619.811 39.0498H619.694ZM632.527 39.166C630.081 39.166 628.261 38.5296 627.065 37.2568C625.881 35.973 625.289 34.014 625.289 31.3799C625.289 28.7679 625.87 26.7868 627.032 25.4365C628.194 24.0752 629.904 23.3945 632.162 23.3945C634.176 23.3945 635.693 24.0475 636.711 25.3535C637.74 26.6595 638.255 28.5742 638.255 31.0977C638.255 31.2083 638.194 31.3633 638.072 31.5625C637.962 31.7507 637.823 31.9222 637.657 32.0771C637.502 32.221 637.369 32.293 637.259 32.293H627.945C628.067 33.9421 628.488 35.1484 629.207 35.9121C629.938 36.6647 631.033 37.041 632.494 37.041C633.313 37.041 634.016 36.9414 634.603 36.7422C635.2 36.543 635.776 36.2995 636.329 36.0117C636.384 35.9896 636.467 35.9508 636.578 35.8955C636.689 35.8402 636.766 35.8125 636.811 35.8125C636.932 35.8125 637.071 35.9121 637.226 36.1113C637.392 36.2995 637.53 36.5153 637.641 36.7588C637.762 36.9912 637.823 37.1628 637.823 37.2734C637.823 37.5169 637.58 37.7881 637.093 38.0869C636.606 38.3857 635.953 38.6403 635.134 38.8506C634.326 39.0609 633.457 39.166 632.527 39.166ZM635.615 30.168C635.615 27.069 634.437 25.5195 632.079 25.5195C629.545 25.5195 628.167 27.069 627.945 30.168H635.615ZM643.335 39.0498C642.914 39.0498 642.61 39 642.422 38.9004C642.234 38.7897 642.14 38.6237 642.14 38.4023V28.043C642.14 26.7591 642.079 25.835 641.957 25.2705C641.835 24.695 641.774 24.3796 641.774 24.3242C641.774 24.0807 641.957 23.9092 642.322 23.8096C642.699 23.6989 643.053 23.6436 643.385 23.6436C643.661 23.6436 643.866 23.793 643.999 24.0918C644.132 24.3906 644.226 24.695 644.281 25.0049C644.348 25.3148 644.392 25.514 644.414 25.6025C645.034 24.9053 645.748 24.363 646.556 23.9756C647.375 23.5882 648.199 23.3945 649.029 23.3945C650.535 23.3945 651.708 23.8206 652.549 24.6729C653.401 25.514 653.827 26.6761 653.827 28.1592V38.4023C653.827 38.6237 653.733 38.7897 653.545 38.9004C653.357 39 653.058 39.0498 652.648 39.0498H652.516C652.117 39.0498 651.824 39 651.636 38.9004C651.448 38.7897 651.354 38.6237 651.354 38.4023V28.4082C651.354 27.5007 651.088 26.7979 650.557 26.2998C650.036 25.7907 649.3 25.5361 648.349 25.5361C647.685 25.5361 647.015 25.7243 646.34 26.1006C645.676 26.4658 645.1 26.9694 644.613 27.6113V38.4023C644.613 38.6237 644.519 38.7897 644.331 38.9004C644.143 39 643.85 39.0498 643.451 39.0498H643.335ZM664.834 39.166C662.388 39.166 660.562 38.5407 659.355 37.29C658.16 36.0283 657.562 34.0029 657.562 31.2139C657.562 28.3916 658.232 26.3828 659.571 25.1875C660.91 23.9922 662.576 23.3945 664.568 23.3945C665.31 23.3945 666.024 23.4609 666.71 23.5938C667.396 23.7155 667.95 23.8815 668.37 24.0918C668.791 24.3021 669.001 24.5234 669.001 24.7559C669.001 24.9108 668.946 25.1156 668.835 25.3701C668.735 25.6247 668.608 25.8516 668.453 26.0508C668.309 26.2389 668.176 26.333 668.055 26.333C668.021 26.333 667.972 26.3219 667.905 26.2998C667.839 26.2666 667.778 26.2389 667.723 26.2168C666.727 25.752 665.653 25.5195 664.502 25.5195C663.141 25.5195 662.089 25.9678 661.348 26.8643C660.606 27.7497 660.235 29.1774 660.235 31.1475C660.235 32.542 660.385 33.6709 660.684 34.5342C660.982 35.3864 661.464 36.0173 662.128 36.4268C662.803 36.8363 663.7 37.041 664.817 37.041C666.046 37.041 667.153 36.7865 668.138 36.2773C668.237 36.2552 668.309 36.2331 668.354 36.2109C668.409 36.1777 668.448 36.1611 668.47 36.1611C668.591 36.1611 668.73 36.2552 668.885 36.4434C669.04 36.6315 669.173 36.8473 669.283 37.0908C669.405 37.3343 669.466 37.528 669.466 37.6719C669.466 37.9043 669.256 38.1367 668.835 38.3691C668.414 38.6016 667.844 38.7952 667.125 38.9502C666.417 39.0941 665.653 39.166 664.834 39.166ZM679.211 39.166C676.765 39.166 674.944 38.5296 673.749 37.2568C672.565 35.973 671.973 34.014 671.973 31.3799C671.973 28.7679 672.554 26.7868 673.716 25.4365C674.878 24.0752 676.588 23.3945 678.846 23.3945C680.86 23.3945 682.376 24.0475 683.395 25.3535C684.424 26.6595 684.938 28.5742 684.938 31.0977C684.938 31.2083 684.878 31.3633 684.756 31.5625C684.645 31.7507 684.507 31.9222 684.341 32.0771C684.186 32.221 684.053 32.293 683.942 32.293H674.629C674.751 33.9421 675.171 35.1484 675.891 35.9121C676.621 36.6647 677.717 37.041 679.178 37.041C679.997 37.041 680.7 36.9414 681.286 36.7422C681.884 36.543 682.459 36.2995 683.013 36.0117C683.068 35.9896 683.151 35.9508 683.262 35.8955C683.372 35.8402 683.45 35.8125 683.494 35.8125C683.616 35.8125 683.754 35.9121 683.909 36.1113C684.075 36.2995 684.214 36.5153 684.324 36.7588C684.446 36.9912 684.507 37.1628 684.507 37.2734C684.507 37.5169 684.263 37.7881 683.776 38.0869C683.289 38.3857 682.636 38.6403 681.817 38.8506C681.009 39.0609 680.141 39.166 679.211 39.166ZM682.299 30.168C682.299 27.069 681.12 25.5195 678.763 25.5195C676.228 25.5195 674.85 27.069 674.629 30.168H682.299Z" fill="black"/>
<path d="M774.608 39.0498C774.199 39.0498 773.9 39 773.712 38.9004C773.535 38.7897 773.446 38.6237 773.446 38.4023V19.2275C773.446 18.9066 773.513 18.6797 773.646 18.5469C773.789 18.4141 774.016 18.3477 774.326 18.3477H780.303C782.029 18.3477 783.557 18.7627 784.885 19.5928C786.224 20.4118 786.894 21.9225 786.894 24.125C786.894 25.763 786.512 27.0358 785.748 27.9434C784.984 28.8398 784.127 29.443 783.175 29.7529C782.223 30.0518 781.365 30.2012 780.602 30.2012H776.02V38.4023C776.02 38.6237 775.925 38.7897 775.737 38.9004C775.549 39 775.256 39.0498 774.857 39.0498H774.608ZM780.635 27.96C781.133 27.96 781.653 27.8548 782.195 27.6445C782.738 27.4232 783.208 27.0303 783.606 26.4658C784.005 25.8903 784.204 25.11 784.204 24.125C784.204 22.8079 783.811 21.8893 783.025 21.3691C782.251 20.849 781.315 20.5889 780.22 20.5889H776.02V27.96H780.635ZM791.608 39.0498C791.188 39.0498 790.883 39 790.695 38.9004C790.507 38.7897 790.413 38.6237 790.413 38.4023V28.043C790.413 26.7591 790.352 25.835 790.23 25.2705C790.109 24.695 790.048 24.3796 790.048 24.3242C790.048 24.0807 790.23 23.9092 790.596 23.8096C790.972 23.6989 791.326 23.6436 791.658 23.6436C791.924 23.6436 792.123 23.7874 792.256 24.0752C792.389 24.3519 792.505 24.7448 792.604 25.2539L792.688 25.6025C793.739 24.1305 794.879 23.3945 796.107 23.3945C796.672 23.3945 797.098 23.4997 797.386 23.71C797.674 23.9092 797.817 24.1803 797.817 24.5234C797.817 24.8555 797.757 25.2096 797.635 25.5859C797.524 25.9512 797.391 26.1338 797.236 26.1338C797.159 26.1338 797.021 26.1006 796.821 26.0342C796.644 25.9567 796.467 25.9014 796.29 25.8682C796.113 25.8239 795.886 25.8018 795.609 25.8018C795.156 25.8018 794.724 25.9346 794.314 26.2002C793.916 26.4658 793.578 26.7591 793.302 27.0801C793.025 27.401 792.887 27.5781 792.887 27.6113V38.4023C792.887 38.6237 792.793 38.7897 792.604 38.9004C792.416 39 792.123 39.0498 791.725 39.0498H791.608ZM807.015 39.166C804.79 39.166 803.091 38.502 801.918 37.1738C800.756 35.8346 800.175 33.8923 800.175 31.3467C800.175 28.8011 800.767 26.8421 801.951 25.4697C803.135 24.0863 804.823 23.3945 807.015 23.3945C809.184 23.3945 810.844 24.0807 811.995 25.4531C813.146 26.8145 813.722 28.779 813.722 31.3467C813.722 33.9033 813.152 35.8457 812.012 37.1738C810.883 38.502 809.217 39.166 807.015 39.166ZM806.932 37.041C808.37 37.041 809.433 36.5762 810.119 35.6465C810.805 34.7057 811.148 33.2559 811.148 31.2969C811.148 29.3268 810.805 27.8714 810.119 26.9307C809.433 25.9899 808.37 25.5195 806.932 25.5195C805.504 25.5195 804.452 25.9899 803.777 26.9307C803.102 27.8604 802.765 29.3158 802.765 31.2969C802.765 33.2669 803.097 34.7168 803.761 35.6465C804.436 36.5762 805.493 37.041 806.932 37.041ZM819.399 19.8418C818.603 19.8418 818.204 19.626 818.204 19.1943V17.4512C818.204 17.0195 818.603 16.8037 819.399 16.8037H819.748C820.534 16.8037 820.927 17.0195 820.927 17.4512V19.1943C820.927 19.626 820.534 19.8418 819.748 19.8418H819.399ZM817.009 45.2588C815.559 45.2588 814.834 44.9655 814.834 44.3789C814.834 44.2682 814.862 44.0967 814.917 43.8643C814.961 43.6429 815.033 43.4382 815.133 43.25C815.232 43.0729 815.343 42.9844 815.465 42.9844C815.531 42.9844 815.67 43.0065 815.88 43.0508C816.09 43.1061 816.378 43.1338 816.743 43.1338C817.23 43.1338 817.612 42.9733 817.889 42.6523C818.176 42.3424 818.32 41.778 818.32 40.959V24.1582C818.32 23.7266 818.719 23.5107 819.516 23.5107H819.632C820.418 23.5107 820.811 23.7266 820.811 24.1582V41.1748C820.811 42.7021 820.423 43.7646 819.648 44.3623C818.874 44.96 817.994 45.2588 817.009 45.2588ZM832.382 39.166C829.936 39.166 828.115 38.5296 826.92 37.2568C825.736 35.973 825.144 34.014 825.144 31.3799C825.144 28.7679 825.725 26.7868 826.887 25.4365C828.049 24.0752 829.759 23.3945 832.017 23.3945C834.031 23.3945 835.547 24.0475 836.565 25.3535C837.595 26.6595 838.109 28.5742 838.109 31.0977C838.109 31.2083 838.049 31.3633 837.927 31.5625C837.816 31.7507 837.678 31.9222 837.512 32.0771C837.357 32.221 837.224 32.293 837.113 32.293H827.8C827.922 33.9421 828.342 35.1484 829.062 35.9121C829.792 36.6647 830.888 37.041 832.349 37.041C833.168 37.041 833.87 36.9414 834.457 36.7422C835.055 36.543 835.63 36.2995 836.184 36.0117C836.239 35.9896 836.322 35.9508 836.433 35.8955C836.543 35.8402 836.621 35.8125 836.665 35.8125C836.787 35.8125 836.925 35.9121 837.08 36.1113C837.246 36.2995 837.384 36.5153 837.495 36.7588C837.617 36.9912 837.678 37.1628 837.678 37.2734C837.678 37.5169 837.434 37.7881 836.947 38.0869C836.46 38.3857 835.807 38.6403 834.988 38.8506C834.18 39.0609 833.312 39.166 832.382 39.166ZM835.47 30.168C835.47 27.069 834.291 25.5195 831.934 25.5195C829.399 25.5195 828.021 27.069 827.8 30.168H835.47ZM848.253 39.166C845.807 39.166 843.981 38.5407 842.774 37.29C841.579 36.0283 840.981 34.0029 840.981 31.2139C840.981 28.3916 841.651 26.3828 842.99 25.1875C844.329 23.9922 845.995 23.3945 847.987 23.3945C848.729 23.3945 849.443 23.4609 850.129 23.5938C850.815 23.7155 851.368 23.8815 851.789 24.0918C852.21 24.3021 852.42 24.5234 852.42 24.7559C852.42 24.9108 852.365 25.1156 852.254 25.3701C852.154 25.6247 852.027 25.8516 851.872 26.0508C851.728 26.2389 851.595 26.333 851.474 26.333C851.44 26.333 851.391 26.3219 851.324 26.2998C851.258 26.2666 851.197 26.2389 851.142 26.2168C850.146 25.752 849.072 25.5195 847.921 25.5195C846.56 25.5195 845.508 25.9678 844.767 26.8643C844.025 27.7497 843.654 29.1774 843.654 31.1475C843.654 32.542 843.804 33.6709 844.103 34.5342C844.401 35.3864 844.883 36.0173 845.547 36.4268C846.222 36.8363 847.118 37.041 848.236 37.041C849.465 37.041 850.572 36.7865 851.557 36.2773C851.656 36.2552 851.728 36.2331 851.772 36.2109C851.828 36.1777 851.867 36.1611 851.889 36.1611C852.01 36.1611 852.149 36.2552 852.304 36.4434C852.459 36.6315 852.591 36.8473 852.702 37.0908C852.824 37.3343 852.885 37.528 852.885 37.6719C852.885 37.9043 852.674 38.1367 852.254 38.3691C851.833 38.6016 851.263 38.7952 850.544 38.9502C849.836 39.0941 849.072 39.166 848.253 39.166ZM860.737 39.166C859.752 39.166 858.872 38.8672 858.098 38.2695C857.323 37.6719 856.936 36.6149 856.936 35.0986V25.6855H855.458C855.248 25.6855 855.093 25.6191 854.993 25.4863C854.905 25.3424 854.86 25.1156 854.86 24.8057V24.4404C854.86 24.1305 854.905 23.9092 854.993 23.7764C855.093 23.6325 855.248 23.5605 855.458 23.5605H856.936L857.284 20.4727C857.306 20.041 857.622 19.8252 858.23 19.8252H858.513C858.823 19.8252 859.049 19.8805 859.193 19.9912C859.337 20.0908 859.409 20.2513 859.409 20.4727V23.5605H861.883C862.093 23.5605 862.243 23.6325 862.331 23.7764C862.431 23.9092 862.48 24.1305 862.48 24.4404V24.8057C862.48 25.1156 862.431 25.3424 862.331 25.4863C862.243 25.6191 862.093 25.6855 861.883 25.6855H859.409V34.8662C859.409 35.6742 859.548 36.2386 859.824 36.5596C860.112 36.8805 860.499 37.041 860.986 37.041C861.363 37.041 861.65 37.0189 861.85 36.9746C862.06 36.9303 862.198 36.9082 862.265 36.9082C862.442 36.9082 862.586 37.0853 862.696 37.4395C862.818 37.7936 862.879 38.0758 862.879 38.2861C862.879 38.8727 862.165 39.166 860.737 39.166ZM869.619 39.2822C868.789 39.2822 868.014 39.1771 867.295 38.9668C866.576 38.7565 866 38.502 865.568 38.2031C865.148 37.8932 864.938 37.6221 864.938 37.3896C864.938 37.279 864.993 37.1019 865.104 36.8584C865.225 36.6149 865.364 36.3991 865.519 36.2109C865.685 36.0117 865.834 35.9121 865.967 35.9121C866 35.9121 866.1 35.9674 866.266 36.0781C866.708 36.3659 867.173 36.6094 867.66 36.8086C868.158 37.0078 868.75 37.1074 869.437 37.1074C871.362 37.1074 872.325 36.3105 872.325 34.7168C872.325 34.263 872.231 33.8812 872.043 33.5713C871.866 33.2614 871.562 32.9902 871.13 32.7578C870.709 32.5143 870.128 32.2819 869.387 32.0605C868.324 31.7507 867.494 31.3965 866.896 30.998C866.31 30.5996 865.895 30.1348 865.651 29.6035C865.408 29.0612 865.286 28.4082 865.286 27.6445C865.286 26.8255 865.491 26.0895 865.9 25.4365C866.321 24.7835 866.902 24.2744 867.644 23.9092C868.396 23.5439 869.243 23.3613 870.184 23.3613C870.837 23.3613 871.462 23.4222 872.06 23.5439C872.668 23.6657 873.155 23.8262 873.521 24.0254C873.897 24.2135 874.085 24.4128 874.085 24.623C874.085 24.778 874.03 24.9883 873.919 25.2539C873.819 25.5085 873.692 25.7354 873.537 25.9346C873.382 26.1227 873.244 26.2168 873.122 26.2168C873.1 26.2168 872.962 26.1504 872.707 26.0176C872.452 25.8737 872.126 25.7464 871.728 25.6357C871.34 25.514 870.909 25.4531 870.433 25.4531C869.68 25.4531 869.055 25.6247 868.557 25.9678C868.07 26.2998 867.826 26.748 867.826 27.3125C867.826 27.9766 868.003 28.5078 868.357 28.9062C868.712 29.3047 869.298 29.6312 870.117 29.8857C871.379 30.2731 872.342 30.6605 873.006 31.0479C873.67 31.4352 874.14 31.9111 874.417 32.4756C874.705 33.029 874.849 33.7594 874.849 34.667C874.849 35.5303 874.616 36.3161 874.151 37.0244C873.687 37.7217 873.056 38.2751 872.259 38.6846C871.462 39.083 870.582 39.2822 869.619 39.2822Z" fill="black"/>
<path d="M987.09 39.166C983.858 39.166 981.467 38.3138 979.918 36.6094C978.368 34.9049 977.594 32.2542 977.594 28.6572C977.594 21.6514 980.776 18.1484 987.14 18.1484C988.069 18.1484 988.971 18.248 989.846 18.4473C990.72 18.6354 991.428 18.8734 991.971 19.1611C992.513 19.4489 992.784 19.7256 992.784 19.9912C992.784 20.1572 992.723 20.3786 992.602 20.6553C992.491 20.932 992.358 21.1755 992.203 21.3857C992.048 21.596 991.91 21.7012 991.788 21.7012C991.733 21.7012 991.578 21.6292 991.323 21.4854C990.748 21.1755 990.145 20.9154 989.514 20.7051C988.883 20.4948 988.114 20.3896 987.206 20.3896C984.826 20.3896 983.072 21.0537 981.943 22.3818C980.826 23.6989 980.267 25.8018 980.267 28.6904C980.267 31.5127 980.82 33.5934 981.927 34.9326C983.045 36.2607 984.766 36.9248 987.09 36.9248C988.064 36.9248 988.899 36.8086 989.597 36.5762C990.294 36.3438 990.964 36.056 991.605 35.7129C991.915 35.5469 992.104 35.4639 992.17 35.4639C992.292 35.4639 992.43 35.569 992.585 35.7793C992.751 35.9896 992.895 36.2275 993.017 36.4932C993.138 36.7477 993.199 36.9303 993.199 37.041C993.199 37.3177 992.917 37.6276 992.353 37.9707C991.799 38.3027 991.052 38.585 990.111 38.8174C989.182 39.0498 988.174 39.166 987.09 39.166ZM1002.66 39.166C1000.44 39.166 998.739 38.502 997.565 37.1738C996.403 35.8346 995.822 33.8923 995.822 31.3467C995.822 28.8011 996.414 26.8421 997.599 25.4697C998.783 24.0863 1000.47 23.3945 1002.66 23.3945C1004.83 23.3945 1006.49 24.0807 1007.64 25.4531C1008.79 26.8145 1009.37 28.779 1009.37 31.3467C1009.37 33.9033 1008.8 35.8457 1007.66 37.1738C1006.53 38.502 1004.86 39.166 1002.66 39.166ZM1002.58 37.041C1004.02 37.041 1005.08 36.5762 1005.77 35.6465C1006.45 34.7057 1006.8 33.2559 1006.8 31.2969C1006.8 29.3268 1006.45 27.8714 1005.77 26.9307C1005.08 25.9899 1004.02 25.5195 1002.58 25.5195C1001.15 25.5195 1000.1 25.9899 999.425 26.9307C998.75 27.8604 998.412 29.3158 998.412 31.2969C998.412 33.2669 998.744 34.7168 999.408 35.6465C1000.08 36.5762 1001.14 37.041 1002.58 37.041ZM1014.73 39.0498C1014.31 39.0498 1014.01 39 1013.82 38.9004C1013.63 38.7897 1013.54 38.6237 1013.54 38.4023V28.043C1013.54 26.7591 1013.48 25.835 1013.35 25.2705C1013.23 24.695 1013.17 24.3796 1013.17 24.3242C1013.17 24.0807 1013.35 23.9092 1013.72 23.8096C1014.1 23.6989 1014.45 23.6436 1014.78 23.6436C1015.06 23.6436 1015.26 23.793 1015.4 24.0918C1015.53 24.3906 1015.62 24.695 1015.68 25.0049C1015.74 25.3148 1015.79 25.514 1015.81 25.6025C1016.43 24.9053 1017.14 24.363 1017.95 23.9756C1018.77 23.5882 1019.6 23.3945 1020.43 23.3945C1021.93 23.3945 1023.1 23.8206 1023.95 24.6729C1024.8 25.514 1025.22 26.6761 1025.22 28.1592V38.4023C1025.22 38.6237 1025.13 38.7897 1024.94 38.9004C1024.75 39 1024.45 39.0498 1024.04 39.0498H1023.91C1023.51 39.0498 1023.22 39 1023.03 38.9004C1022.84 38.7897 1022.75 38.6237 1022.75 38.4023V28.4082C1022.75 27.5007 1022.48 26.7979 1021.95 26.2998C1021.43 25.7907 1020.7 25.5361 1019.75 25.5361C1019.08 25.5361 1018.41 25.7243 1017.74 26.1006C1017.07 26.4658 1016.5 26.9694 1016.01 27.6113V38.4023C1016.01 38.6237 1015.92 38.7897 1015.73 38.9004C1015.54 39 1015.25 39.0498 1014.85 39.0498H1014.73ZM1034.4 39.166C1033.42 39.166 1032.54 38.8672 1031.76 38.2695C1030.99 37.6719 1030.6 36.6149 1030.6 35.0986V25.6855H1029.12C1028.91 25.6855 1028.76 25.6191 1028.66 25.4863C1028.57 25.3424 1028.53 25.1156 1028.53 24.8057V24.4404C1028.53 24.1305 1028.57 23.9092 1028.66 23.7764C1028.76 23.6325 1028.91 23.5605 1029.12 23.5605H1030.6L1030.95 20.4727C1030.97 20.041 1031.29 19.8252 1031.9 19.8252H1032.18C1032.49 19.8252 1032.72 19.8805 1032.86 19.9912C1033 20.0908 1033.08 20.2513 1033.08 20.4727V23.5605H1035.55C1035.76 23.5605 1035.91 23.6325 1036 23.7764C1036.1 23.9092 1036.15 24.1305 1036.15 24.4404V24.8057C1036.15 25.1156 1036.1 25.3424 1036 25.4863C1035.91 25.6191 1035.76 25.6855 1035.55 25.6855H1033.08V34.8662C1033.08 35.6742 1033.21 36.2386 1033.49 36.5596C1033.78 36.8805 1034.17 37.041 1034.65 37.041C1035.03 37.041 1035.32 37.0189 1035.52 36.9746C1035.73 36.9303 1035.87 36.9082 1035.93 36.9082C1036.11 36.9082 1036.25 37.0853 1036.36 37.4395C1036.49 37.7936 1036.55 38.0758 1036.55 38.2861C1036.55 38.8727 1035.83 39.166 1034.4 39.166ZM1044.05 39.166C1042.54 39.166 1041.33 38.7952 1040.4 38.0537C1039.47 37.3122 1039 36.2109 1039 34.75C1039 33.2116 1039.47 32.055 1040.41 31.2803C1041.35 30.4945 1042.5 29.9909 1043.85 29.7695C1045.21 29.5371 1046.86 29.4043 1048.8 29.3711V27.9766C1048.8 27.235 1048.54 26.6429 1048.03 26.2002C1047.54 25.7464 1046.71 25.5195 1045.56 25.5195C1044.69 25.5195 1043.92 25.6247 1043.25 25.835C1042.6 26.0342 1041.99 26.2777 1041.41 26.5654C1041.17 26.6872 1041.02 26.748 1040.96 26.748C1040.83 26.748 1040.68 26.654 1040.51 26.4658C1040.36 26.2666 1040.22 26.0452 1040.1 25.8018C1039.99 25.5583 1039.93 25.3812 1039.93 25.2705C1039.93 25.016 1040.19 24.7393 1040.71 24.4404C1041.24 24.1416 1041.94 23.8926 1042.79 23.6934C1043.64 23.4941 1044.53 23.3945 1045.46 23.3945C1047.31 23.3945 1048.74 23.7985 1049.76 24.6064C1050.78 25.4144 1051.29 26.5488 1051.29 28.0098V34.6338C1051.29 35.9176 1051.34 36.8473 1051.45 37.4229C1051.58 37.9873 1051.64 38.2972 1051.64 38.3525C1051.64 38.596 1051.45 38.7731 1051.07 38.8838C1050.71 38.9834 1050.36 39.0332 1050.04 39.0332C1049.78 39.0332 1049.58 38.8838 1049.45 38.585C1049.32 38.2861 1049.2 37.8545 1049.08 37.29L1049.01 36.958C1048.4 37.6331 1047.69 38.1699 1046.86 38.5684C1046.04 38.9668 1045.1 39.166 1044.05 39.166ZM1044.18 37.0244C1045.16 37.0244 1045.99 36.8473 1046.67 36.4932C1047.36 36.139 1048.07 35.6354 1048.8 34.9824V31.4961C1047.34 31.5072 1046.14 31.568 1045.2 31.6787C1044.25 31.7894 1043.43 32.0716 1042.72 32.5254C1042.01 32.9681 1041.66 33.6598 1041.66 34.6006C1041.66 35.3864 1041.87 35.9896 1042.29 36.4102C1042.72 36.8197 1043.35 37.0244 1044.18 37.0244ZM1062.46 39.166C1060.01 39.166 1058.19 38.5407 1056.98 37.29C1055.79 36.0283 1055.19 34.0029 1055.19 31.2139C1055.19 28.3916 1055.86 26.3828 1057.2 25.1875C1058.54 23.9922 1060.2 23.3945 1062.2 23.3945C1062.94 23.3945 1063.65 23.4609 1064.34 23.5938C1065.02 23.7155 1065.58 23.8815 1066 24.0918C1066.42 24.3021 1066.63 24.5234 1066.63 24.7559C1066.63 24.9108 1066.57 25.1156 1066.46 25.3701C1066.36 25.6247 1066.24 25.8516 1066.08 26.0508C1065.94 26.2389 1065.8 26.333 1065.68 26.333C1065.65 26.333 1065.6 26.3219 1065.53 26.2998C1065.47 26.2666 1065.4 26.2389 1065.35 26.2168C1064.35 25.752 1063.28 25.5195 1062.13 25.5195C1060.77 25.5195 1059.72 25.9678 1058.97 26.8643C1058.23 27.7497 1057.86 29.1774 1057.86 31.1475C1057.86 32.542 1058.01 33.6709 1058.31 34.5342C1058.61 35.3864 1059.09 36.0173 1059.75 36.4268C1060.43 36.8363 1061.33 37.041 1062.44 37.041C1063.67 37.041 1064.78 36.7865 1065.76 36.2773C1065.86 36.2552 1065.94 36.2331 1065.98 36.2109C1066.04 36.1777 1066.07 36.1611 1066.1 36.1611C1066.22 36.1611 1066.36 36.2552 1066.51 36.4434C1066.67 36.6315 1066.8 36.8473 1066.91 37.0908C1067.03 37.3343 1067.09 37.528 1067.09 37.6719C1067.09 37.9043 1066.88 38.1367 1066.46 38.3691C1066.04 38.6016 1065.47 38.7952 1064.75 38.9502C1064.04 39.0941 1063.28 39.166 1062.46 39.166ZM1074.95 39.166C1073.96 39.166 1073.08 38.8672 1072.31 38.2695C1071.53 37.6719 1071.14 36.6149 1071.14 35.0986V25.6855H1069.67C1069.46 25.6855 1069.3 25.6191 1069.2 25.4863C1069.11 25.3424 1069.07 25.1156 1069.07 24.8057V24.4404C1069.07 24.1305 1069.11 23.9092 1069.2 23.7764C1069.3 23.6325 1069.46 23.5605 1069.67 23.5605H1071.14L1071.49 20.4727C1071.51 20.041 1071.83 19.8252 1072.44 19.8252H1072.72C1073.03 19.8252 1073.26 19.8805 1073.4 19.9912C1073.55 20.0908 1073.62 20.2513 1073.62 20.4727V23.5605H1076.09C1076.3 23.5605 1076.45 23.6325 1076.54 23.7764C1076.64 23.9092 1076.69 24.1305 1076.69 24.4404V24.8057C1076.69 25.1156 1076.64 25.3424 1076.54 25.4863C1076.45 25.6191 1076.3 25.6855 1076.09 25.6855H1073.62V34.8662C1073.62 35.6742 1073.76 36.2386 1074.03 36.5596C1074.32 36.8805 1074.71 37.041 1075.19 37.041C1075.57 37.041 1075.86 37.0189 1076.06 36.9746C1076.27 36.9303 1076.41 36.9082 1076.47 36.9082C1076.65 36.9082 1076.79 37.0853 1076.9 37.4395C1077.03 37.7936 1077.09 38.0758 1077.09 38.2861C1077.09 38.8727 1076.37 39.166 1074.95 39.166Z" fill="black"/>
</svg>
